<?xml version="1.0" encoding="UTF-8"?>
<svg xmlns="http://www.w3.org/2000/svg" xmlns:xlink="http://www.w3.org/1999/xlink" width="201pt" height="69pt" viewBox="0 0 201 69" version="1.1">
<g id="surface1">
<path style=" stroke:none;fill-rule:nonzero;fill:rgb(100%,100%,100%);fill-opacity:1;" d="M 76.84375 31.101562 L 76.84375 41.703125 L 69.675781 41.703125 L 69.675781 10.773438 L 81.46875 10.773438 C 85.132812 10.773438 88.035156 11.707031 90.1875 13.578125 C 92.335938 15.445312 93.410156 17.902344 93.410156 20.949219 C 93.410156 23.992188 92.335938 26.449219 90.1875 28.320312 C 88.035156 30.175781 85.132812 31.101562 81.46875 31.101562 Z M 76.84375 25.578125 L 81.46875 25.578125 C 83.023438 25.578125 84.210938 25.15625 85.03125 24.304688 C 85.851562 23.441406 86.261719 22.335938 86.261719 20.992188 C 86.261719 19.617188 85.851562 18.492188 85.03125 17.613281 C 84.226562 16.734375 83.039062 16.296875 81.46875 16.296875 L 76.84375 16.296875 Z M 76.84375 25.578125 "/>
<path style=" stroke:none;fill-rule:nonzero;fill:rgb(100%,100%,100%);fill-opacity:1;" d="M 104.792969 31.570312 L 104.816406 31.742188 L 104.941406 31.742188 L 108.738281 18.71875 L 116.375 18.71875 L 107.234375 45.125 C 106.527344 46.824219 105.613281 48.226562 104.496094 49.332031 C 103.378906 50.433594 101.605469 50.988281 99.171875 50.988281 C 98.550781 50.988281 98.042969 50.945312 97.644531 50.859375 C 97.25 50.789062 96.628906 50.648438 95.78125 50.433594 L 96.648438 45.316406 C 96.847656 45.359375 96.996094 45.386719 97.09375 45.398438 C 97.195312 45.429688 97.320312 45.441406 97.476562 45.441406 C 98.609375 45.441406 99.433594 45.273438 99.957031 44.933594 C 100.480469 44.605469 100.871094 44.113281 101.125 43.445312 L 101.695312 41.957031 L 93.765625 18.71875 L 101.378906 18.71875 Z M 104.792969 31.570312 "/>
<path style=" stroke:none;fill-rule:nonzero;fill:rgb(100%,100%,100%);fill-opacity:1;" d="M 125.023438 13.003906 L 125.023438 18.71875 L 128.648438 18.71875 L 128.648438 23.6875 L 125.023438 23.6875 L 125.023438 34.226562 C 125.023438 35.046875 125.183594 35.640625 125.511719 36.011719 C 125.847656 36.363281 126.300781 36.542969 126.867188 36.542969 C 127.234375 36.542969 127.523438 36.527344 127.738281 36.5 C 127.964844 36.46875 128.246094 36.414062 128.585938 36.328125 L 129.074219 41.640625 C 128.351562 41.824219 127.703125 41.953125 127.121094 42.023438 C 126.542969 42.105469 125.855469 42.148438 125.066406 42.148438 C 122.703125 42.148438 120.90625 41.519531 119.675781 40.257812 C 118.460938 39 117.851562 37 117.851562 34.269531 L 117.851562 23.6875 L 114.652344 23.6875 L 114.652344 18.71875 L 117.851562 18.71875 L 117.851562 13.003906 Z M 125.023438 13.003906 "/>
<path style=" stroke:none;fill-rule:nonzero;fill:rgb(100%,100%,100%);fill-opacity:1;" d="M 137.679688 21.566406 C 138.371094 20.53125 139.214844 19.730469 140.203125 19.164062 C 141.207031 18.582031 142.308594 18.292969 143.511719 18.292969 C 145.886719 18.292969 147.753906 19.121094 149.109375 20.777344 C 150.46875 22.433594 151.148438 25.007812 151.148438 28.488281 L 151.148438 41.703125 L 143.976562 41.703125 L 143.976562 28.449219 C 143.976562 26.691406 143.753906 25.480469 143.300781 24.816406 C 142.847656 24.148438 142.160156 23.816406 141.242188 23.816406 C 140.4375 23.816406 139.734375 23.9375 139.140625 24.175781 C 138.546875 24.402344 138.0625 24.730469 137.679688 25.15625 L 137.679688 41.703125 L 130.507812 41.703125 L 130.507812 8.5625 L 137.679688 8.5625 Z M 137.679688 21.566406 "/>
<path style=" stroke:none;fill-rule:nonzero;fill:rgb(100%,100%,100%);fill-opacity:1;" d="M 152.773438 30 C 152.773438 26.542969 153.75 23.730469 155.703125 21.566406 C 157.652344 19.382812 160.375 18.292969 163.867188 18.292969 C 167.375 18.292969 170.101562 19.382812 172.054688 21.566406 C 174.007812 23.730469 174.980469 26.542969 174.980469 30 L 174.980469 30.445312 C 174.980469 33.914062 174.007812 36.734375 172.054688 38.898438 C 170.101562 41.066406 167.386719 42.148438 163.910156 42.148438 C 160.390625 42.148438 157.652344 41.066406 155.703125 38.898438 C 153.75 36.734375 152.773438 33.914062 152.773438 30.445312 Z M 159.945312 30.445312 C 159.945312 32.371094 160.242188 33.886719 160.835938 34.992188 C 161.441406 36.082031 162.46875 36.625 163.910156 36.625 C 165.308594 36.625 166.3125 36.074219 166.921875 34.96875 C 167.53125 33.863281 167.832031 32.355469 167.832031 30.445312 L 167.832031 30 C 167.832031 28.128906 167.53125 26.632812 166.921875 25.515625 C 166.3125 24.382812 165.296875 23.816406 163.867188 23.816406 C 162.453125 23.816406 161.441406 24.382812 160.835938 25.515625 C 160.242188 26.648438 159.945312 28.144531 159.945312 30 Z M 159.945312 30.445312 "/>
<path style=" stroke:none;fill-rule:nonzero;fill:rgb(100%,100%,100%);fill-opacity:1;" d="M 183.332031 18.71875 L 183.609375 21.945312 C 184.359375 20.800781 185.285156 19.90625 186.386719 19.269531 C 187.488281 18.617188 188.71875 18.292969 190.078125 18.292969 C 192.324219 18.292969 194.078125 19.058594 195.335938 20.585938 C 196.609375 22.117188 197.246094 24.546875 197.246094 27.875 L 197.246094 41.703125 L 190.078125 41.703125 L 190.078125 27.851562 C 190.078125 26.394531 189.84375 25.359375 189.378906 24.75 C 188.910156 24.128906 188.230469 23.816406 187.339844 23.816406 C 186.578125 23.816406 185.890625 23.949219 185.285156 24.21875 C 184.675781 24.488281 184.167969 24.871094 183.757812 25.367188 L 183.757812 41.703125 L 176.609375 41.703125 L 176.609375 18.71875 Z M 183.332031 18.71875 "/>
<path style=" stroke:none;fill-rule:nonzero;fill:rgb(100%,100%,100%);fill-opacity:1;" d="M 113.683594 51.097656 C 113.703125 55.359375 117.273438 58.796875 121.660156 58.78125 C 123.535156 58.773438 125.257812 58.132812 126.585938 57.101562 C 126.824219 56.925781 126.867188 56.53125 126.648438 56.335938 C 126.492188 56.074219 126.144531 56.03125 125.882812 56.207031 C 124.753906 57.171875 123.269531 57.703125 121.65625 57.710938 C 117.835938 57.726562 114.769531 54.742188 114.753906 51.09375 C 114.738281 47.355469 117.785156 44.347656 121.601562 44.332031 C 123.21875 44.328125 124.703125 44.890625 125.886719 45.800781 C 126.105469 45.976562 126.453125 45.953125 126.628906 45.691406 C 126.824219 45.492188 126.777344 45.121094 126.539062 44.925781 C 125.203125 43.902344 123.476562 43.253906 121.597656 43.261719 C 117.210938 43.300781 113.667969 46.746094 113.683594 51.097656 Z M 113.683594 51.097656 "/>
<path style=" stroke:none;fill-rule:nonzero;fill:rgb(100%,100%,100%);fill-opacity:1;" d="M 137.128906 48.007812 C 136.847656 48.011719 136.605469 48.230469 136.609375 48.535156 L 136.613281 50.109375 C 135.691406 48.847656 134.226562 48.019531 132.589844 48.027344 C 129.773438 48.039062 127.535156 50.472656 127.546875 53.402344 C 127.558594 56.332031 129.816406 58.75 132.632812 58.738281 C 134.269531 58.730469 135.726562 57.875 136.640625 56.601562 L 136.644531 58.199219 C 136.648438 58.480469 136.886719 58.722656 137.171875 58.71875 C 137.457031 58.71875 137.695312 58.476562 137.695312 58.195312 L 137.65625 48.53125 C 137.65625 48.226562 137.414062 48.007812 137.128906 48.007812 Z M 132.628906 57.6875 C 130.445312 57.699219 128.605469 55.804688 128.59375 53.398438 C 128.585938 50.996094 130.410156 49.0625 132.59375 49.054688 C 134.796875 49.046875 136.617188 50.960938 136.628906 53.367188 C 136.636719 55.773438 134.832031 57.679688 132.628906 57.6875 Z M 132.628906 57.6875 "/>
<path style=" stroke:none;fill-rule:nonzero;fill:rgb(100%,100%,100%);fill-opacity:1;" d="M 147.398438 58.15625 C 147.398438 58.460938 147.640625 58.679688 147.925781 58.679688 C 148.207031 58.679688 148.445312 58.457031 148.445312 58.152344 L 148.421875 52.335938 C 148.414062 49.953125 146.464844 47.996094 144.0625 48.003906 C 142.730469 48.007812 141.535156 48.625 140.75 49.570312 L 140.746094 48.542969 C 140.746094 48.257812 140.527344 48.019531 140.242188 48.019531 C 139.9375 48.019531 139.71875 48.261719 139.722656 48.546875 L 139.734375 52.195312 L 139.738281 52.371094 L 139.757812 58.1875 L 139.761719 58.316406 C 139.761719 58.316406 139.78125 58.339844 139.78125 58.359375 C 139.78125 58.382812 139.78125 58.40625 139.804688 58.425781 C 139.871094 58.558594 140 58.664062 140.15625 58.707031 L 140.285156 58.707031 C 140.4375 58.707031 140.589844 58.640625 140.675781 58.511719 C 140.742188 58.445312 140.765625 58.355469 140.785156 58.269531 L 140.785156 58.183594 L 140.761719 52.367188 C 140.800781 50.554688 142.253906 49.0625 144.066406 49.054688 C 145.898438 49.046875 147.367188 50.527344 147.375 52.34375 Z M 147.398438 58.15625 "/>
<path style=" stroke:none;fill-rule:nonzero;fill:rgb(100%,100%,100%);fill-opacity:1;" d="M 159.285156 47.921875 C 159.003906 47.925781 158.765625 48.144531 158.765625 48.449219 L 158.769531 50.023438 C 157.851562 48.757812 156.382812 47.933594 154.746094 47.941406 C 151.933594 47.953125 149.695312 50.386719 149.703125 53.316406 C 149.714844 56.246094 151.972656 58.664062 154.789062 58.652344 C 156.425781 58.644531 157.886719 57.785156 158.796875 56.515625 L 158.804688 58.109375 C 158.804688 58.394531 159.046875 58.636719 159.328125 58.632812 C 159.613281 58.632812 159.851562 58.390625 159.851562 58.105469 L 159.8125 48.445312 C 159.8125 48.140625 159.570312 47.921875 159.285156 47.921875 Z M 154.785156 57.601562 C 152.601562 57.609375 150.761719 55.714844 150.753906 53.3125 C 150.742188 50.90625 152.570312 48.976562 154.75 48.96875 C 156.957031 48.960938 158.773438 50.875 158.785156 53.28125 C 158.792969 55.683594 156.988281 57.59375 154.785156 57.601562 Z M 154.785156 57.601562 "/>
<path style=" stroke:none;fill-rule:nonzero;fill:rgb(100%,100%,100%);fill-opacity:1;" d="M 162.128906 58.097656 C 162.128906 58.402344 162.371094 58.621094 162.675781 58.621094 C 162.9375 58.621094 163.179688 58.398438 163.175781 58.09375 L 163.160156 53.394531 C 163.160156 53.351562 163.160156 53.308594 163.203125 53.21875 C 163.351562 52.78125 163.761719 51.6875 164.480469 50.722656 C 165.21875 49.757812 166.175781 48.96875 167.570312 48.960938 C 167.855469 48.960938 168.09375 48.71875 168.09375 48.433594 C 168.09375 48.128906 167.851562 47.910156 167.566406 47.914062 C 165.515625 47.921875 164.101562 49.28125 163.300781 50.550781 C 163.234375 50.640625 163.191406 50.726562 163.148438 50.816406 L 163.140625 48.453125 C 163.136719 48.148438 162.898438 47.929688 162.636719 47.929688 C 162.328125 47.933594 162.089844 48.152344 162.089844 48.457031 Z M 162.128906 58.097656 "/>
<path style=" stroke:none;fill-rule:nonzero;fill:rgb(100%,100%,100%);fill-opacity:1;" d="M 169.480469 58.070312 C 169.480469 58.351562 169.722656 58.59375 170.003906 58.59375 C 170.308594 58.59375 170.550781 58.347656 170.546875 58.066406 L 170.511719 48.402344 C 170.507812 48.097656 170.269531 47.878906 169.960938 47.882812 C 169.679688 47.882812 169.441406 48.101562 169.441406 48.40625 Z M 169.429688 45.414062 C 169.429688 45.71875 169.671875 45.980469 169.957031 45.980469 C 170.261719 45.976562 170.5 45.714844 170.5 45.410156 L 170.496094 44.90625 C 170.496094 44.621094 170.253906 44.382812 169.949219 44.382812 C 169.664062 44.382812 169.425781 44.625 169.425781 44.910156 Z M 169.429688 45.414062 "/>
<path style=" stroke:none;fill-rule:nonzero;fill:rgb(100%,100%,100%);fill-opacity:1;" d="M 181.738281 47.835938 C 181.453125 47.835938 181.214844 48.054688 181.214844 48.363281 L 181.222656 49.933594 C 180.300781 48.671875 178.835938 47.847656 177.199219 47.851562 C 174.382812 47.863281 172.144531 50.296875 172.15625 53.226562 C 172.167969 56.15625 174.425781 58.574219 177.238281 58.5625 C 178.878906 58.558594 180.335938 57.699219 181.246094 56.425781 L 181.253906 58.023438 C 181.253906 58.308594 181.496094 58.546875 181.78125 58.546875 C 182.0625 58.546875 182.300781 58.304688 182.300781 58.019531 L 182.261719 48.355469 C 182.261719 48.050781 182.023438 47.832031 181.738281 47.835938 Z M 177.234375 57.515625 C 175.054688 57.523438 173.210938 55.628906 173.203125 53.222656 C 173.195312 50.820312 175.019531 48.886719 177.203125 48.878906 C 179.40625 48.871094 181.226562 50.789062 181.234375 53.191406 C 181.246094 55.597656 179.441406 57.503906 177.234375 57.515625 Z M 177.234375 57.515625 "/>
<path style=" stroke:none;fill-rule:nonzero;fill:rgb(100%,100%,100%);fill-opacity:1;" d="M 183.898438 57.007812 C 184.777344 57.703125 186.132812 58.507812 187.855469 58.523438 C 188.902344 58.519531 189.777344 58.207031 190.515625 57.660156 C 191.234375 57.109375 191.734375 56.386719 191.730469 55.488281 C 191.726562 54.59375 191.21875 53.765625 190.519531 53.308594 C 189.777344 52.898438 188.945312 52.59375 187.917969 52.445312 L 187.875 52.445312 C 186.894531 52.296875 186.171875 52.035156 185.691406 51.710938 C 185.273438 51.382812 185.078125 51.078125 185.074219 50.640625 C 185.074219 50.203125 185.3125 49.765625 185.746094 49.414062 C 186.203125 49.042969 186.902344 48.796875 187.773438 48.792969 C 188.820312 48.789062 189.609375 49.335938 190.398438 49.855469 C 190.636719 50.007812 190.964844 49.941406 191.117188 49.699219 C 191.269531 49.457031 191.203125 49.132812 190.960938 48.957031 C 190.128906 48.4375 189.144531 47.804688 187.769531 47.8125 C 186.679688 47.816406 185.785156 48.101562 185.15625 48.542969 C 184.480469 49.046875 184.003906 49.792969 184.007812 50.644531 C 184.007812 51.476562 184.492188 52.175781 185.171875 52.566406 C 185.78125 53 186.636719 53.214844 187.597656 53.386719 L 187.640625 53.40625 C 188.6875 53.578125 189.453125 53.835938 189.914062 54.1875 C 190.460938 54.644531 190.65625 54.992188 190.679688 55.496094 C 190.683594 55.976562 190.402344 56.457031 189.878906 56.808594 C 189.402344 57.203125 188.679688 57.46875 187.851562 57.472656 C 186.5 57.476562 185.316406 56.78125 184.574219 56.238281 C 184.332031 56.042969 184.003906 56.089844 183.832031 56.308594 C 183.65625 56.527344 183.679688 56.8125 183.898438 57.007812 Z M 183.898438 57.007812 "/>
<path style=" stroke:none;fill-rule:nonzero;fill:rgb(100%,100%,100%);fill-opacity:1;" d="M 33.136719 59.148438 C 45.761719 59.148438 44.972656 53.664062 44.972656 53.664062 L 44.960938 47.984375 L 32.914062 47.984375 L 32.914062 46.277344 L 49.746094 46.277344 C 49.746094 46.277344 57.824219 47.195312 57.824219 34.4375 C 57.824219 21.679688 50.773438 22.132812 50.773438 22.132812 L 46.566406 22.132812 L 46.566406 28.050781 C 46.566406 28.050781 46.792969 35.113281 39.625 35.113281 C 32.460938 35.113281 27.675781 35.113281 27.675781 35.113281 C 27.675781 35.113281 20.964844 35.007812 20.964844 41.613281 C 20.964844 48.21875 20.964844 52.539062 20.964844 52.539062 C 20.964844 52.539062 19.945312 59.148438 33.136719 59.148438 Z M 39.78125 55.328125 C 38.582031 55.328125 37.613281 54.359375 37.613281 53.15625 C 37.613281 51.957031 38.582031 50.988281 39.78125 50.988281 C 40.980469 50.988281 41.949219 51.957031 41.949219 53.15625 C 41.949219 54.359375 40.980469 55.328125 39.78125 55.328125 Z M 39.78125 55.328125 "/>
<path style=" stroke:none;fill-rule:nonzero;fill:rgb(100%,100%,100%);fill-opacity:1;" d="M 32.78125 9.601562 C 20.15625 9.601562 20.941406 15.082031 20.941406 15.082031 L 20.945312 16.09375 L 20.957031 20.765625 L 33.003906 20.765625 L 33.003906 22.46875 L 16.171875 22.46875 C 16.171875 22.46875 8.09375 21.550781 8.09375 34.308594 C 8.09375 47.070312 15.144531 46.617188 15.144531 46.617188 L 19.351562 46.617188 L 19.351562 40.695312 C 19.351562 40.695312 19.125 33.632812 26.292969 33.632812 L 38.242188 33.632812 C 38.242188 33.632812 44.953125 33.742188 44.953125 27.136719 L 44.953125 16.210938 C 44.953125 16.210938 45.972656 9.601562 32.78125 9.601562 Z M 26.136719 13.417969 C 27.335938 13.417969 28.304688 14.390625 28.304688 15.589844 C 28.304688 16.792969 27.335938 17.761719 26.136719 17.761719 C 24.9375 17.761719 23.96875 16.792969 23.96875 15.589844 C 23.96875 14.390625 24.9375 13.417969 26.136719 13.417969 Z M 26.136719 13.417969 "/>
<path style=" stroke:none;fill-rule:evenodd;fill:rgb(100%,100%,100%);fill-opacity:1;" d="M 14.769531 20.753906 L 19.136719 20.753906 L 19.136719 16.746094 C 17.222656 16.636719 14.765625 19.023438 14.769531 20.753906 Z M 14.769531 20.753906 "/>
<path style=" stroke:none;fill-rule:evenodd;fill:rgb(100%,100%,100%);fill-opacity:1;" d="M 50.90625 47.976562 L 46.542969 47.976562 L 46.542969 51.984375 C 48.457031 52.09375 50.910156 49.707031 50.90625 47.976562 Z M 50.90625 47.976562 "/>
</g>
</svg>
