<?xml version="1.0" encoding="UTF-8" standalone="no"?>
<!-- Created with Inkscape (http://www.inkscape.org/) -->

<svg
   xmlns:dc="http://purl.org/dc/elements/1.1/"
   xmlns:cc="http://creativecommons.org/ns#"
   xmlns:rdf="http://www.w3.org/1999/02/22-rdf-syntax-ns#"
   xmlns:svg="http://www.w3.org/2000/svg"
   xmlns="http://www.w3.org/2000/svg"
   xmlns:sodipodi="http://sodipodi.sourceforge.net/DTD/sodipodi-0.dtd"
   xmlns:inkscape="http://www.inkscape.org/namespaces/inkscape"
   width="210mm"
   height="297mm"
   viewBox="0 0 210 297"
   version="1.1"
   id="svg8"
   inkscape:version="0.92.2 5c3e80d, 2017-08-06"
   sodipodi:docname="attendance.svg">
  <defs
     id="defs2" />
  <sodipodi:namedview
     id="base"
     pagecolor="#ffffff"
     bordercolor="#666666"
     borderopacity="1.0"
     inkscape:pageopacity="0.0"
     inkscape:pageshadow="2"
     inkscape:zoom="0.5683642"
     inkscape:cx="396.85039"
     inkscape:cy="561.25984"
     inkscape:document-units="mm"
     inkscape:current-layer="layer1"
     showgrid="false"
     showguides="false"
     inkscape:guide-bbox="true"
     inkscape:snap-global="true"
     inkscape:window-width="1440"
     inkscape:window-height="851"
     inkscape:window-x="0"
     inkscape:window-y="1"
     inkscape:window-maximized="1">
    <sodipodi:guide
       position="-40.584889,15"
       orientation="0,1"
       id="guide1040"
       inkscape:locked="false"
       inkscape:label=""
       inkscape:color="rgb(0,0,255)" />
    <sodipodi:guide
       position="-23.191365,282"
       orientation="0,1"
       id="guide1042"
       inkscape:locked="false"
       inkscape:label=""
       inkscape:color="rgb(0,0,255)" />
    <sodipodi:guide
       position="15,196.68063"
       orientation="1,0"
       id="guide1044"
       inkscape:locked="false"
       inkscape:label=""
       inkscape:color="rgb(0,0,255)" />
    <sodipodi:guide
       position="195,282.00001"
       orientation="1,0"
       id="guide1046"
       inkscape:locked="false"
       inkscape:label=""
       inkscape:color="rgb(0,0,255)" />
  </sodipodi:namedview>
  <metadata
     id="metadata5">
    <rdf:RDF>
      <cc:Work
         rdf:about="">
        <dc:format>image/svg+xml</dc:format>
        <dc:type
           rdf:resource="http://purl.org/dc/dcmitype/StillImage" />
        <dc:title />
      </cc:Work>
    </rdf:RDF>
  </metadata>
  <g
     inkscape:label="Capa 1"
     inkscape:groupmode="layer"
     id="layer1">
    <g
       transform="matrix(0.14521711,0,0,0.14521711,50.979235,-30.678351)"
       id="layer1-9"
       inkscape:label="Capa 1">
      <rect
         inkscape:export-ydpi="21.661715"
         inkscape:export-xdpi="21.661715"
         y="797.36243"
         x="0"
         height="255"
         width="744"
         id="rect20075"
         style="color:#000000;clip-rule:nonzero;display:inline;overflow:visible;visibility:visible;opacity:1;isolation:auto;mix-blend-mode:normal;color-interpolation:sRGB;color-interpolation-filters:linearRGB;solid-color:#000000;solid-opacity:1;fill:none;fill-opacity:1;fill-rule:evenodd;stroke:none;stroke-width:8;stroke-linecap:round;stroke-linejoin:round;stroke-miterlimit:4;stroke-dasharray:none;stroke-dashoffset:0;stroke-opacity:1;color-rendering:auto;image-rendering:auto;shape-rendering:auto;text-rendering:auto;enable-background:accumulate" />
      <g
         style="fill:#f5cc00;fill-opacity:1"
         id="g4556">
        <path
           inkscape:connector-curvature="0"
           id="path4513"
           style="font-style:normal;font-variant:normal;font-weight:normal;font-stretch:normal;font-size:medium;line-height:125%;font-family:Roboto;-inkscape-font-specification:Roboto;letter-spacing:-5.28294897px;word-spacing:0px;fill:#f5cc00;fill-opacity:1;stroke:none;stroke-width:1px;stroke-linecap:butt;stroke-linejoin:miter;stroke-opacity:1"
           d="M 284.44017,912.19021 V 951.3667 H 257.90379 V 837.05615 h 43.65156 q 20.33409,0 32.2676,10.36332 11.93352,10.36332 11.93352,27.24297 0,16.87964 -11.93352,27.24296 -11.93351,10.28481 -32.2676,10.28481 z m 0,-20.4126 h 17.11518 q 8.6361,0 13.18968,-4.7106 4.55358,-4.78911 4.55358,-12.24755 0,-7.61547 -4.55358,-12.48309 -4.47507,-4.86762 -13.18968,-4.86762 h -17.11518 z" />
        <path
           inkscape:connector-curvature="0"
           id="path4515"
           style="font-style:normal;font-variant:normal;font-weight:normal;font-stretch:normal;font-size:medium;line-height:125%;font-family:Roboto;-inkscape-font-specification:Roboto;letter-spacing:-5.28294897px;word-spacing:0px;fill:#f5cc00;fill-opacity:1;stroke:none;stroke-width:1px;stroke-linecap:butt;stroke-linejoin:miter;stroke-opacity:1"
           d="m 387.89356,913.91743 0.0785,0.62808 h 0.47106 l 14.05329,-48.12662 h 28.2636 l -33.83781,97.58792 q -3.9255,9.4212 -10.12779,15.54498 -6.20229,6.12378 -19.70601,6.12378 -3.45444,0 -5.65272,-0.47106 -2.19828,-0.39255 -6.90888,-1.5702 l 3.21891,-18.92091 q 1.09914,0.23553 1.64871,0.31404 0.54957,0.15702 1.41318,0.15702 6.2808,0 9.18567,-1.88424 2.90487,-1.80573 4.31805,-5.4957 l 2.11977,-5.4957 -29.36274,-85.88993 h 28.18509 l 12.64011,47.49854 z" />
        <path
           inkscape:connector-curvature="0"
           id="path4517"
           style="font-style:normal;font-variant:normal;font-weight:normal;font-stretch:normal;font-size:medium;line-height:125%;font-family:Roboto;-inkscape-font-specification:Roboto;letter-spacing:-5.28294897px;word-spacing:0px;fill:#f5cc00;fill-opacity:1;stroke:none;stroke-width:1px;stroke-linecap:butt;stroke-linejoin:miter;stroke-opacity:1"
           d="m 462.76931,845.2997 v 21.11919 h 13.42521 v 18.37133 h -13.42521 v 38.94096 q 0,4.55358 1.80573,6.59484 1.88424,1.96275 5.02464,1.96275 2.04126,0 3.21891,-0.15702 1.25616,-0.15702 3.1404,-0.62808 l 1.80573,19.6275 q -4.00401,1.02063 -7.22292,1.41318 -3.21891,0.47106 -7.61547,0.47106 -13.11116,0 -19.94153,-6.98739 -6.75186,-6.98739 -6.75186,-22.13982 v -39.09798 h -11.85501 v -18.37133 h 11.85501 V 845.2997 Z" />
        <path
           inkscape:connector-curvature="0"
           id="path4519"
           style="font-style:normal;font-variant:normal;font-weight:normal;font-stretch:normal;font-size:medium;line-height:125%;font-family:Roboto;-inkscape-font-specification:Roboto;letter-spacing:-5.28294897px;word-spacing:0px;fill:#f5cc00;fill-opacity:1;stroke:none;stroke-width:1px;stroke-linecap:butt;stroke-linejoin:miter;stroke-opacity:1"
           d="m 509.617,876.93923 q 3.84699,-5.73123 9.34269,-8.87163 5.57421,-3.21891 12.24756,-3.21891 13.18968,0 20.72664,9.18567 7.53696,9.18566 7.53696,28.49912 v 48.83322 h -26.53638 v -48.99024 q 0,-9.73524 -2.51232,-13.42521 -2.51232,-3.68997 -7.61547,-3.68997 -4.47507,0 -7.77249,1.33467 -3.29742,1.25616 -5.41719,3.61146 V 951.3667 H 483.08063 V 828.89111 H 509.617 Z" />
        <path
           inkscape:connector-curvature="0"
           id="path4521"
           style="font-style:normal;font-variant:normal;font-weight:normal;font-stretch:normal;font-size:medium;line-height:125%;font-family:Roboto;-inkscape-font-specification:Roboto;letter-spacing:-5.28294897px;word-spacing:0px;fill:#f5cc00;fill-opacity:1;stroke:none;stroke-width:1px;stroke-linecap:butt;stroke-linejoin:miter;stroke-opacity:1"
           d="m 565.49333,908.10769 q 0,-19.15644 10.83438,-31.16846 10.83438,-12.09054 30.22635,-12.09054 19.47047,0 30.30485,12.09054 10.83438,12.01202 10.83438,31.16846 v 1.64871 q 0,19.23495 -10.83438,31.24698 -10.83438,12.01203 -30.14783,12.01203 -19.54899,0 -30.38337,-12.01203 -10.83438,-12.01203 -10.83438,-31.24698 z m 26.53638,1.64871 q 0,10.67736 3.29742,16.80114 3.37593,6.04527 11.38395,6.04527 7.77248,0 11.14841,-6.12378 3.37593,-6.12378 3.37593,-16.72263 v -1.64871 q 0,-10.36332 -3.37593,-16.56561 -3.37593,-6.2808 -11.30543,-6.2808 -7.851,0 -11.22693,6.2808 -3.29742,6.2808 -3.29742,16.56561 z" />
        <path
           inkscape:connector-curvature="0"
           id="path4523"
           style="font-style:normal;font-variant:normal;font-weight:normal;font-stretch:normal;font-size:medium;line-height:125%;font-family:Roboto;-inkscape-font-specification:Roboto;letter-spacing:-5.28294897px;word-spacing:0px;fill:#f5cc00;fill-opacity:1;stroke:none;stroke-width:1px;stroke-linecap:butt;stroke-linejoin:miter;stroke-opacity:1"
           d="m 678.60347,866.41889 1.02063,11.93351 q 4.16103,-6.3593 10.28481,-9.89225 6.12378,-3.61146 13.66074,-3.61146 12.48309,0 19.47048,8.47908 7.0659,8.47907 7.0659,26.92892 v 51.11001 h -26.53638 v -51.18852 q 0,-8.08653 -2.59083,-11.46246 -2.59083,-3.45444 -7.53696,-3.45444 -4.23954,0 -7.61547,1.49169 -3.37593,1.49169 -5.65272,4.23954 V 951.3667 H 653.7158 v -84.94781 z" />
      </g>
      <g
         style="fill:#4884ce;fill-opacity:1"
         id="g4564">
        <path
           inkscape:connector-curvature="0"
           id="path4532"
           style="font-style:normal;font-variant:normal;font-weight:normal;font-stretch:normal;font-size:medium;line-height:125%;font-family:Quicksand;-inkscape-font-specification:Quicksand;letter-spacing:-8.37846279px;word-spacing:0px;fill:#4884ce;fill-opacity:1;stroke:none;stroke-width:1px;stroke-linecap:butt;stroke-linejoin:miter;stroke-opacity:1"
           d="m 420.80478,986.0786 c 0.0617,15.7528 13.27933,28.4651 29.51683,28.4015 6.94739,-0.027 13.32011,-2.395 18.23305,-6.211 0.88608,-0.6498 1.04196,-2.1045 0.23128,-2.8284 -0.56928,-0.9672 -1.86245,-1.1237 -2.82933,-0.4737 -4.18682,3.5709 -9.67251,5.5313 -15.6505,5.5547 -14.13712,0.055 -25.49013,-10.96778 -25.54294,-24.45859 -0.0541,-13.81399 11.2123,-24.9256 25.34942,-24.98094 5.97799,-0.0234 11.47949,2.05547 15.85508,5.4313 0.81036,0.64311 2.10258,0.55727 2.74505,-0.41467 0.72421,-0.72989 0.55727,-2.10257 -0.33419,-2.82615 -4.94267,-3.77754 -11.33404,-6.17606 -18.28143,-6.14887 -16.23718,0.14436 -29.35524,12.8789 -29.29232,28.95482 z" />
        <path
           inkscape:connector-curvature="0"
           id="path4534"
           style="font-style:normal;font-variant:normal;font-weight:normal;font-stretch:normal;font-size:medium;line-height:125%;font-family:Quicksand;-inkscape-font-specification:Quicksand;letter-spacing:-8.37846279px;word-spacing:0px;fill:#4884ce;fill-opacity:1;stroke:none;stroke-width:1px;stroke-linecap:butt;stroke-linejoin:miter;stroke-opacity:1"
           d="m 507.58519,974.6714 c -1.05019,0.004 -1.93565,0.81542 -1.93122,1.9464 l 0.0228,5.81641 c -3.41125,-4.67216 -8.83576,-7.72075 -14.89452,-7.69704 -10.42109,0.0408 -18.70668,9.04034 -18.66431,19.86533 0.0424,10.8249 8.39817,19.7594 18.81925,19.7186 6.05876,-0.024 11.45893,-3.1955 14.83349,-7.8942 l 0.0231,5.8973 c 0.004,1.0501 0.89622,1.9353 1.9464,1.9311 1.05019,0 1.93533,-0.8961 1.93122,-1.9463 l -0.13977,-35.70638 c -0.004,-1.13097 -0.8962,-1.93533 -1.94639,-1.93122 z m -16.66321,35.7721 c -8.07836,0.032 -14.89169,-6.97 -14.92647,-15.85618 -0.0348,-8.88619 6.72321,-16.02169 14.80157,-16.05332 8.15913,-0.0319 14.89199,7.05077 14.92677,15.93696 0.0348,8.88614 -6.64273,15.94054 -14.80187,15.97254 z" />
        <path
           inkscape:connector-curvature="0"
           id="path4536"
           style="font-style:normal;font-variant:normal;font-weight:normal;font-stretch:normal;font-size:medium;line-height:125%;font-family:Quicksand;-inkscape-font-specification:Quicksand;letter-spacing:-8.37846279px;word-spacing:0px;fill:#4884ce;fill-opacity:1;stroke:none;stroke-width:1px;stroke-linecap:butt;stroke-linejoin:miter;stroke-opacity:1"
           d="m 545.59262,1012.1684 c 0.004,1.1309 0.8962,1.9353 1.94639,1.9312 1.05019,0 1.93565,-0.8155 1.93122,-1.9464 l -0.0841,-21.48846 c -0.0345,-8.80541 -7.25266,-16.04778 -16.13885,-16.013 -4.9278,0.0193 -9.36204,2.29862 -12.25665,5.78369 l -0.0149,-3.79682 c -0.004,-1.05019 -0.81542,-1.93564 -1.86561,-1.93153 -1.13097,0.004 -1.93532,0.8962 -1.93121,1.94639 l 0.0528,13.49085 0.003,0.64627 0.0841,21.48841 0.002,0.4847 c 0,0 0.0811,0.081 0.0814,0.1612 3.1e-4,0.081 6.3e-4,0.1616 0.0817,0.2421 0.24426,0.4838 0.73054,0.8857 1.29665,1.0451 h 0.48471 c 0.56548,0 1.13001,-0.2468 1.45125,-0.7327 0.2414,-0.2433 0.32093,-0.5668 0.40044,-0.8902 l -10e-4,-0.3231 -0.0841,-21.48848 c 0.13532,-6.70566 5.52632,-12.22012 12.23134,-12.24637 6.78582,-0.0266 12.21982,5.44553 12.24607,12.15056 l 0.0841,21.48849 z" />
        <path
           inkscape:connector-curvature="0"
           id="path4538"
           style="font-style:normal;font-variant:normal;font-weight:normal;font-stretch:normal;font-size:medium;line-height:125%;font-family:Quicksand;-inkscape-font-specification:Quicksand;letter-spacing:-8.37846279px;word-spacing:0px;fill:#4884ce;fill-opacity:1;stroke:none;stroke-width:1px;stroke-linecap:butt;stroke-linejoin:miter;stroke-opacity:1"
           d="m 589.59888,974.35038 c -1.05018,0.004 -1.93564,0.81542 -1.93122,1.94639 l 0.0228,5.81642 c -3.41125,-4.67217 -8.83576,-7.72076 -14.89452,-7.69704 -10.42108,0.0408 -18.70668,9.04033 -18.66431,19.86533 0.0424,10.82492 8.39817,19.75942 18.81925,19.71862 6.05876,-0.024 11.45893,-3.1955 14.83349,-7.8942 l 0.0231,5.8972 c 0.004,1.0502 0.89621,1.9353 1.94639,1.9312 1.05019,0 1.93533,-0.8962 1.93122,-1.9463 l -0.13977,-35.70641 c -0.004,-1.13097 -0.8962,-1.93532 -1.94639,-1.93121 z m -16.66321,35.77202 c -8.07836,0.032 -14.89169,-6.9699 -14.92647,-15.8561 -0.0348,-8.88619 6.72321,-16.0217 14.80157,-16.05332 8.15914,-0.0319 14.89199,7.05076 14.92677,15.93695 0.0348,8.88617 -6.64273,15.94057 -14.80187,15.97247 z" />
        <path
           inkscape:connector-curvature="0"
           id="path4540"
           style="font-style:normal;font-variant:normal;font-weight:normal;font-stretch:normal;font-size:medium;line-height:125%;font-family:Quicksand;-inkscape-font-specification:Quicksand;letter-spacing:-8.37846279px;word-spacing:0px;fill:#4884ce;fill-opacity:1;stroke:none;stroke-width:1px;stroke-linecap:butt;stroke-linejoin:miter;stroke-opacity:1"
           d="m 600.12098,1011.9549 c 0.004,1.1309 0.8962,1.9353 2.02718,1.9309 0.9694,0 1.85486,-0.8152 1.85043,-1.946 l -0.068,-17.36855 c -6.3e-4,-0.16155 -0.001,-0.32312 0.15903,-0.64689 0.55916,-1.61788 2.07824,-5.66307 4.73018,-9.22798 2.73273,-3.56523 6.27582,-6.48734 11.44597,-6.50758 1.05018,-0.004 1.93532,-0.89621 1.93121,-1.9464 -0.004,-1.13097 -0.89621,-1.93532 -1.94639,-1.93121 -7.59365,0.0297 -12.82498,5.05885 -15.79563,9.75599 -0.24109,0.32409 -0.40139,0.64786 -0.56169,0.97162 l -0.0341,-8.72462 c -0.004,-1.13097 -0.89621,-1.93532 -1.86561,-1.93153 -1.13097,0.004 -2.01642,0.81574 -2.012,1.94671 l 0.13945,35.62554 z" />
        <path
           inkscape:connector-curvature="0"
           id="path4542"
           style="font-style:normal;font-variant:normal;font-weight:normal;font-stretch:normal;font-size:medium;line-height:125%;font-family:Quicksand;-inkscape-font-specification:Quicksand;letter-spacing:-8.37846279px;word-spacing:0px;fill:#4884ce;fill-opacity:1;stroke:none;stroke-width:1px;stroke-linecap:butt;stroke-linejoin:miter;stroke-opacity:1"
           d="m 627.32393,1011.8484 c 0.004,1.0502 0.89621,1.9354 1.9464,1.9312 1.13096,0 2.0161,-0.8965 2.01199,-1.9466 l -0.13976,-35.7064 c -0.004,-1.13097 -0.89621,-1.93533 -2.02717,-1.9309 -1.0502,0.004 -1.93565,0.81542 -1.93122,1.94639 z m -0.18308,-46.77365 c 0.004,1.13097 0.89683,2.09689 1.94703,2.09278 1.13096,-0.004 2.01579,-0.97731 2.01136,-2.10828 l -0.007,-1.85801 c -0.004,-1.05019 -0.89622,-1.93533 -2.02718,-1.9309 -1.05019,0.004 -1.93532,0.8962 -1.93121,1.94639 z" />
        <path
           inkscape:connector-curvature="0"
           id="path4544"
           style="font-style:normal;font-variant:normal;font-weight:normal;font-stretch:normal;font-size:medium;line-height:125%;font-family:Quicksand;-inkscape-font-specification:Quicksand;letter-spacing:-8.37846279px;word-spacing:0px;fill:#4884ce;fill-opacity:1;stroke:none;stroke-width:1px;stroke-linecap:butt;stroke-linejoin:miter;stroke-opacity:1"
           d="m 672.70099,974.02509 c -1.05018,0.004 -1.93564,0.81543 -1.93121,1.9464 l 0.0228,5.81641 c -3.41124,-4.67216 -8.83576,-7.72075 -14.89452,-7.69704 -10.42107,0.0408 -18.70668,9.04034 -18.6643,19.86533 0.0424,10.82491 8.39817,19.75941 18.81924,19.71861 6.05877,-0.024 11.45893,-3.1955 14.8335,-7.8942 l 0.0231,5.8972 c 0.004,1.0502 0.89621,1.9354 1.94639,1.9312 1.0502,0 1.93533,-0.8961 1.93122,-1.9463 l -0.13976,-35.70639 c -0.004,-1.13097 -0.89621,-1.93533 -1.9464,-1.93122 z m -16.66321,35.77201 c -8.07834,0.032 -14.89167,-6.9699 -14.92645,-15.85609 -0.0348,-8.88619 6.7232,-16.02169 14.80155,-16.05331 8.15914,-0.0319 14.89199,7.05076 14.92678,15.93695 0.0348,8.88615 -6.64274,15.94055 -14.80188,15.97245 z" />
        <path
           inkscape:connector-curvature="0"
           id="path4546"
           style="font-style:normal;font-variant:normal;font-weight:normal;font-stretch:normal;font-size:medium;line-height:125%;font-family:Quicksand;-inkscape-font-specification:Quicksand;letter-spacing:-8.37846279px;word-spacing:0px;fill:#4884ce;fill-opacity:1;stroke:none;stroke-width:1px;stroke-linecap:butt;stroke-linejoin:miter;stroke-opacity:1"
           d="m 680.70424,1007.9234 c 3.24146,2.5724 8.26174,5.5418 14.64396,5.5976 3.87761,-0.015 7.10452,-1.1588 9.84325,-3.1892 2.65796,-2.03 4.50554,-4.7031 4.49257,-8.0152 -0.013,-3.31218 -1.88299,-6.37466 -4.4747,-8.06099 -2.75265,-1.52414 -5.82685,-2.64309 -9.6259,-3.19371 l -0.16157,6.3e-4 c -3.63746,-0.55126 -6.30712,-1.51023 -8.08909,-2.71502 -1.53964,-1.20574 -2.27112,-2.33387 -2.27744,-3.94954 -0.006,-1.61567 0.87597,-3.23482 2.48658,-4.53367 1.69108,-1.37997 4.27267,-2.27871 7.50402,-2.29135 3.87761,-0.0152 6.79372,1.99302 9.70952,3.92044 0.89083,0.56201 2.10163,0.31492 2.66364,-0.57592 0.562,-0.89083 0.31491,-2.10163 -0.57624,-2.74443 -3.07736,-1.92678 -6.72179,-4.25528 -11.81115,-4.23536 -4.03918,0.0158 -7.34719,1.07897 -9.68359,2.70381 -2.49702,1.86782 -4.2635,4.62142 -4.25117,7.77198 0.012,3.06977 1.79937,5.64789 4.30935,7.09218 2.26827,1.60683 5.42199,2.40233 8.97899,3.03468 l 0.16188,0.0802 c 3.88014,0.6311 6.71136,1.58943 8.41287,2.87528 2.02623,1.68858 2.75834,2.97819 2.8464,4.83599 0.007,1.7772 -1.03627,3.5586 -2.97002,4.8586 -1.77154,1.4611 -4.43361,2.4409 -7.50338,2.4529 -5.00858,0.02 -9.38101,-2.5483 -12.13556,-4.5572 -0.89146,-0.7235 -2.10257,-0.5572 -2.74569,0.2531 -0.6431,0.8104 -0.55821,1.8602 0.25247,2.5842 z" />
      </g>
      <circle
         inkscape:export-ydpi="300.00775"
         inkscape:export-xdpi="300.00775"
         r="112.07596"
         cy="924.23523"
         cx="123.49812"
         id="circle17737"
         style="color:#000000;clip-rule:nonzero;display:inline;overflow:visible;visibility:visible;opacity:1;isolation:auto;mix-blend-mode:normal;color-interpolation:sRGB;color-interpolation-filters:linearRGB;solid-color:#000000;solid-opacity:1;fill:#000000;fill-opacity:1;fill-rule:evenodd;stroke:none;stroke-width:8;stroke-linecap:round;stroke-linejoin:round;stroke-miterlimit:4;stroke-dasharray:none;stroke-dashoffset:0;stroke-opacity:1;color-rendering:auto;image-rendering:auto;shape-rendering:auto;text-rendering:auto;enable-background:accumulate" />
      <g
         transform="matrix(1.6670222,0,0,1.6670222,-1363.6225,-1622.9015)"
         id="g5405">
        <path
           style="color:#000000;display:inline;overflow:visible;visibility:visible;opacity:1;fill:#4884ce;fill-opacity:1;fill-rule:nonzero;stroke:none;stroke-width:1;stroke-linecap:butt;stroke-linejoin:miter;stroke-miterlimit:4;stroke-dasharray:none;stroke-dashoffset:0;stroke-opacity:1;marker:none;marker-start:none;marker-mid:none;marker-end:none"
           d="m 891.57935,1582.9057 c 28.03173,0 26.28125,-12.1563 26.28125,-12.1563 l -0.0312,-12.5937 h -26.75 v -3.7813 h 37.375 c 0,0 17.9375,2.0343 17.9375,-26.25 0,-28.2843 -15.65625,-27.2812 -15.65625,-27.2812 h -9.34375 v 13.125 c 0,0 0.50365,15.6562 -15.40625,15.6562 -15.9099,0 -26.53125,0 -26.53125,0 0,0 -14.90625,-0.241 -14.90625,14.4063 0,14.6472 0,24.2187 0,24.2187 0,0 -2.26318,14.6563 27.03125,14.6563 z m 14.75,-8.4688 c -2.66143,0 -4.8125,-2.1511 -4.8125,-4.8125 0,-2.6614 2.15107,-4.8125 4.8125,-4.8125 2.66143,0 4.8125,2.1511 4.8125,4.8125 0,2.6614 -2.15107,4.8125 -4.8125,4.8125 z"
           id="path5407"
           inkscape:connector-curvature="0" />
        <path
           sodipodi:nodetypes="ccccccccscccscscccsssss"
           id="path5409"
           d="m 890.78325,1473.0596 c -28.03174,0 -26.28125,12.1562 -26.28125,12.1562 l 0.006,2.2433 0.0256,10.3505 h 2.50898 24.24102 v 3.7812 h -37.375 c 0,0 -17.9375,-2.0343 -17.9375,26.25 -10e-6,28.2843 15.65625,27.2813 15.65625,27.2813 h 9.34375 v -13.125 c 0,0 -0.50366,-15.6563 15.40625,-15.6563 h 26.53125 c 0,0 14.90625,0.241 14.90625,-14.4062 v -24.2188 c 0,0 2.26318,-14.6562 -27.03125,-14.6562 z m -14.75,8.4687 c 2.66143,0 4.8125,2.1511 4.8125,4.8125 0,2.6614 -2.15107,4.8125 -4.8125,4.8125 -2.66143,0 -4.8125,-2.1511 -4.8125,-4.8125 -10e-6,-2.6614 2.15107,-4.8125 4.8125,-4.8125 z"
           style="color:#000000;display:inline;overflow:visible;visibility:visible;opacity:1;fill:#f5cc00;fill-opacity:1;fill-rule:nonzero;stroke:none;stroke-width:1;stroke-linecap:butt;stroke-linejoin:miter;stroke-miterlimit:4;stroke-dasharray:none;stroke-dashoffset:0;stroke-opacity:1;marker:none;marker-start:none;marker-mid:none;marker-end:none"
           inkscape:connector-curvature="0" />
        <path
           sodipodi:nodetypes="cccc"
           inkscape:connector-curvature="0"
           id="path5411"
           d="m 850.79561,1497.7858 h 9.69163 v -8.884 c -4.24644,-0.2408 -9.69856,5.0513 -9.69163,8.884 z"
           style="fill:#4884ce;fill-opacity:1;fill-rule:evenodd;stroke:none;stroke-width:0.39975929px;stroke-linecap:butt;stroke-linejoin:miter;stroke-opacity:1" />
        <path
           style="fill:#f5cc00;fill-opacity:1;fill-rule:evenodd;stroke:none;stroke-width:0.39975929px;stroke-linecap:butt;stroke-linejoin:miter;stroke-opacity:1"
           d="m 931.03525,1558.1413 h -9.69163 v 8.884 c 4.24644,0.2409 9.69856,-5.0513 9.69163,-8.884 z"
           id="path5413"
           inkscape:connector-curvature="0"
           sodipodi:nodetypes="cccc" />
      </g>
    </g>
    <g
       aria-label="DE ASISTENCIA"
       style="font-style:normal;font-variant:normal;font-weight:500;font-stretch:normal;font-size:16.79910278px;line-height:1.25;font-family:Futura;-inkscape-font-specification:'Futura Medium';text-align:start;text-anchor:start;opacity:0.52600002;fill:#153050;fill-opacity:1;stroke:none;stroke-width:0.2645528;stroke-miterlimit:4;stroke-dasharray:none;stroke-opacity:1"
       id="text1019"
       transform="matrix(0.85840977,0,0,0.85840977,14.810715,10.744675)">
      <path
         inkscape:connector-curvature="0"
         d="M 43.168143,76.604301 V 63.939353 h 2.657671 q 1.911226,0 3.018589,0.377323 1.189389,0.369121 2.157306,1.255012 1.960442,1.788185 1.960442,4.700139 0,2.920157 -2.042469,4.724748 -1.025335,0.902295 -2.149104,1.255011 -1.049943,0.352715 -2.977575,0.352715 z m 1.911226,-1.796388 h 0.861282 q 1.287822,0 2.140902,-0.270689 0.853079,-0.287094 1.542105,-0.910498 1.410862,-1.287822 1.410862,-3.354899 0,-2.083482 -1.394457,-3.379507 -1.255011,-1.156579 -3.699412,-1.156579 h -0.861282 z"
         style="stroke-width:0.2645528"
         id="path1396" />
      <path
         inkscape:connector-curvature="0"
         d="m 62.36243,65.735741 h -5.077463 v 3.043197 h 4.929815 v 1.796389 h -4.929815 v 4.232586 h 5.077463 v 1.796388 H 55.373741 V 63.939353 h 6.988689 z"
         style="stroke-width:0.2645528"
         id="path1398" />
      <path
         inkscape:connector-curvature="0"
         d="m 77.512792,73.528294 h -5.421976 l -1.410862,3.076007 H 68.62108 l 6.266852,-13.460609 6.045381,13.460609 h -2.091686 z m -0.779255,-1.796389 -1.878415,-4.30641 -1.968645,4.30641 z"
         style="stroke-width:0.2645528"
         id="path1400" />
      <path
         inkscape:connector-curvature="0"
         d="m 89.669177,65.825971 -1.550308,0.918701 q -0.434742,-0.754647 -0.828471,-0.984323 -0.410135,-0.262486 -1.058147,-0.262486 -0.795661,0 -1.320633,0.451148 -0.524972,0.442945 -0.524972,1.115566 0,0.926903 1.378052,1.492889 l 1.263214,0.516769 q 1.542105,0.623404 2.255739,1.5257 0.713633,0.894093 0.713633,2.19832 0,1.747172 -1.164781,2.887346 -1.172984,1.148376 -2.911954,1.148376 -1.64874,0 -2.723292,-0.97612 -1.058147,-0.97612 -1.320633,-2.7479 l 1.935834,-0.42654 q 0.131243,1.115566 0.459351,1.542105 0.590593,0.820269 1.722564,0.820269 0.894093,0 1.484686,-0.598796 0.590594,-0.598796 0.590594,-1.517497 0,-0.369121 -0.106635,-0.672621 -0.09843,-0.311702 -0.319905,-0.565985 -0.21327,-0.262486 -0.557783,-0.483959 -0.344512,-0.229675 -0.820268,-0.434742 l -1.222201,-0.508567 q -2.600251,-1.09916 -2.600251,-3.215453 0,-1.427267 1.090957,-2.386982 1.090957,-0.967917 2.715089,-0.967917 2.190118,0 3.420521,2.132699 z"
         style="stroke-width:0.2645528"
         id="path1402" />
      <path
         inkscape:connector-curvature="0"
         d="M 94.229867,63.939353 V 76.604301 H 92.318641 V 63.939353 Z"
         style="stroke-width:0.2645528"
         id="path1404" />
      <path
         inkscape:connector-curvature="0"
         d="m 104.43401,65.825971 -1.55031,0.918701 q -0.43474,-0.754647 -0.82847,-0.984323 -0.41013,-0.262486 -1.05814,-0.262486 -0.79566,0 -1.320636,0.451148 -0.524972,0.442945 -0.524972,1.115566 0,0.926903 1.378048,1.492889 l 1.26322,0.516769 q 1.5421,0.623404 2.25574,1.5257 0.71363,0.894093 0.71363,2.19832 0,1.747172 -1.16478,2.887346 -1.17299,1.148376 -2.91196,1.148376 -1.648736,0 -2.723288,-0.97612 -1.058146,-0.97612 -1.320632,-2.7479 l 1.935834,-0.42654 q 0.131243,1.115566 0.45935,1.542105 0.590594,0.820269 1.722566,0.820269 0.89409,0 1.48468,-0.598796 0.5906,-0.598796 0.5906,-1.517497 0,-0.369121 -0.10664,-0.672621 -0.0984,-0.311702 -0.3199,-0.565985 -0.21327,-0.262486 -0.55778,-0.483959 -0.34452,-0.229675 -0.82027,-0.434742 l -1.222203,-0.508567 q -2.600252,-1.09916 -2.600252,-3.215453 0,-1.427267 1.090957,-2.386982 1.090958,-0.967917 2.715088,-0.967917 2.19012,0 3.42052,2.132699 z"
         style="stroke-width:0.2645528"
         id="path1406" />
      <path
         inkscape:connector-curvature="0"
         d="m 110.8075,65.735741 v 10.86856 h -1.91123 v -10.86856 h -2.91195 v -1.796388 h 7.72693 v 1.796388 z"
         style="stroke-width:0.2645528"
         id="path1408" />
      <path
         inkscape:connector-curvature="0"
         d="m 122.4061,65.735741 h -5.07746 v 3.043197 h 4.92981 v 1.796389 h -4.92981 v 4.232586 h 5.07746 v 1.796388 h -6.98869 V 63.939353 h 6.98869 z"
         style="stroke-width:0.2645528"
         id="path1410" />
      <path
         inkscape:connector-curvature="0"
         d="m 124.93252,76.604301 v -13.52623 l 9.23623,9.662765 v -8.801483 h 1.91123 v 13.436001 l -9.23623,-9.638157 v 8.867104 z"
         style="stroke-width:0.2645528"
         id="path1412" />
      <path
         inkscape:connector-curvature="0"
         d="m 148.59728,64.620176 v 2.263941 q -1.65694,-1.386254 -3.42872,-1.386254 -1.95224,0 -3.28928,1.40266 -1.34524,1.394457 -1.34524,3.412318 0,1.993253 1.34524,3.363101 1.34524,1.369849 3.29748,1.369849 1.00893,0 1.71436,-0.328108 0.39373,-0.164053 0.81207,-0.442945 0.42654,-0.278891 0.89409,-0.67262 v 2.304955 q -1.64054,0.926904 -3.44513,0.926904 -2.71509,0 -4.63452,-1.894821 -1.91122,-1.911226 -1.91122,-4.60991 0,-2.419793 1.59952,-4.314613 1.96865,-2.321361 5.09387,-2.321361 1.70616,0 3.29748,0.926904 z"
         style="stroke-width:0.2645528"
         id="path1414" />
      <path
         inkscape:connector-curvature="0"
         d="m 152.92829,63.939353 v 12.664948 h -1.91122 V 63.939353 Z"
         style="stroke-width:0.2645528"
         id="path1416" />
      <path
         inkscape:connector-curvature="0"
         d="m 163.41133,73.528294 h -5.42197 l -1.41087,3.076007 h -2.05887 l 6.26685,-13.460609 6.04538,13.460609 h -2.09168 z m -0.77925,-1.796389 -1.87842,-4.30641 -1.96864,4.30641 z"
         style="stroke-width:0.2645528"
         id="path1418" />
    </g>
    <g
       id="g1212"
       transform="matrix(-1,0,0,1,210.00005,-1.5926007e-4)">
      <path
         inkscape:connector-curvature="0"
         style="fill:#0f3051;fill-opacity:0.27058824;stroke-width:0.10995889"
         d="m 185.01827,38.649381 c -0.27979,-0.279802 -0.33252,-0.43303 -0.39814,-1.157259 -0.0813,-0.897443 -0.046,-1.050023 0.24289,-1.047995 0.26571,0.0019 0.90067,1.202114 0.90067,1.702506 0,0.41988 -0.15978,0.825248 -0.32529,0.825248 -0.0537,0 -0.24276,-0.145128 -0.42013,-0.3225 z"
         id="path1172" />
      <path
         inkscape:connector-curvature="0"
         style="fill:#0f3051;fill-opacity:0.27058824;stroke-width:0.10995889"
         d="m 170.80921,15.000118 v 0.714685 0.714685 h 7.58713 7.58714 v 0.713135 0.713651 l -4.07676,0.02894 -4.07727,0.02894 1.85054,1.867586 1.85001,1.867586 2.91404,0.0021 2.91403,0.0021 0.031,-1.170471 0.031,-1.170471 0.40876,-0.05116 c 0.22481,-0.02814 0.44605,-0.03058 0.49145,-0.0052 0.0454,0.02538 0.0822,0.587339 0.0822,1.24902 v 1.203027 h 1.20975 1.20974 v 0.49506 0.494544 h -1.20974 -1.20975 v 2.944523 2.944522 l 1.86087,1.783871 c 1.02334,0.981062 1.88943,1.783872 1.92443,1.783872 0.0351,0 0.0636,-1.806295 0.0636,-4.013708 v -4.013704 h 0.65991 0.65939 v 7.422287 7.421768 h 0.71469 0.71468 v -8.136971 -8.136971 h -1.37459 -1.37459 v -0.49506 -0.494543 h 1.37459 1.37459 v -3.353801 -3.3538 h -3.29541 -3.2954 l -0.031,1.401982 -0.0305,1.401981 -0.46715,0.03359 -0.46767,0.03411 v -1.436088 -1.435571 h -8.30182 z m 19.02313,1.425236 1.89652,0.02997 1.89704,0.02997 v 1.869136 1.869653 l -0.60926,0.03204 c -0.33503,0.01778 -0.6444,-0.0031 -0.6873,-0.04599 -0.0429,-0.04295 -0.078,-0.588949 -0.078,-1.21388 v -1.136364 h -1.20974 -1.20923 V 17.14262 Z m 0.7276,2.813265 c 0.0897,-0.001 0.15662,0.0049 0.17932,0.01757 0.0454,0.02538 0.0827,0.265751 0.0827,0.534334 v 0.488859 h -0.42168 c -0.52162,0 -0.56792,-0.04596 -0.56792,-0.556555 0,-0.39069 0.019,-0.411664 0.41238,-0.460954 0.11339,-0.01435 0.22554,-0.02222 0.31522,-0.02325 z m -8.32094,0.0078 c 0.38392,-6.08e-4 0.91558,0.0093 1.63401,0.02015 l 2.12287,0.03204 -0.0336,0.462504 -0.0336,0.463021 -1.87172,0.02997 -1.8712,0.02997 -0.47905,-0.487825 c -0.44287,-0.45127 -0.61946,-0.547988 0.53227,-0.549837 z m 7.59334,4.880839 h 0.49454 0.49506 v 2.364196 h -5.3e-4 c 0,1.300263 -0.0225,2.364197 -0.0501,2.364197 -0.15163,0 -0.92785,-0.858128 -0.94465,-1.044381 -0.011,-0.120952 -0.0142,-0.999297 -0.007,-1.951819 z"
         id="path1174" />
      <path
         inkscape:connector-curvature="0"
         style="fill:#0f3051;fill-opacity:0.27058824;stroke-width:0.10995889"
         d="m 191.58764,38.099457 c 0.16788,-0.313682 0.13853,-0.802708 -0.0657,-1.094248 -0.35361,-0.504852 -0.95366,-0.666565 -2.51448,-0.677635 -0.78621,-0.0058 -1.52843,-0.05269 -1.64938,-0.104651 -0.16299,-0.07003 -0.0761,-0.0965 0.33568,-0.102225 0.30558,-0.0045 1.02306,-0.130501 1.5944,-0.280565 2.02884,-0.53286 3.08814,-0.274969 3.40472,0.828899 0.21524,0.750498 -0.30364,1.643115 -0.95515,1.643115 -0.22687,0 -0.24795,-0.02991 -0.15011,-0.21269 z"
         id="path1176" />
      <path
         inkscape:connector-curvature="0"
         style="fill:#0f3051;fill-opacity:0.27058824;stroke-width:0.10995889"
         d="m 182.65083,38.079757 c -0.18098,-0.105273 -0.15502,-0.162687 0.28745,-0.635733 0.26752,-0.285995 0.54435,-0.628262 0.61517,-0.760593 0.14207,-0.265471 0.64182,-0.334143 0.73147,-0.100518 0.0778,0.202601 -0.23248,1.163947 -0.45492,1.409747 -0.21024,0.232309 -0.84849,0.279455 -1.17917,0.0871 z"
         id="path1178" />
      <path
         inkscape:connector-curvature="0"
         style="fill:#0f3051;fill-opacity:0.27058824;stroke-width:0.10995889"
         d="m 179.99085,37.609626 c -0.93403,-0.408032 -1.51032,-1.274348 -1.51032,-2.270415 0,-1.213281 0.73301,-1.975222 1.90024,-1.975222 0.68171,0 1.13788,0.242321 1.36764,0.726514 0.2229,0.469721 0.20949,0.796406 -0.0502,1.222305 -0.22177,0.363716 -0.55976,0.516411 -1.00033,0.451898 -0.3283,-0.04807 -0.408,-0.309645 -0.11749,-0.38562 0.5323,-0.139199 0.35545,-0.91551 -0.20855,-0.91551 -0.79307,0 -1.04381,0.995271 -0.42757,1.697128 0.43577,0.496311 0.94029,0.60349 1.5489,0.329053 1.06445,-0.480002 1.53554,-1.761012 1.89819,-5.16166 0.0904,-0.847594 0.271,-1.886706 0.40137,-2.30914 0.25548,-0.827892 0.90117,-2.189985 1.0949,-2.309711 0.0655,-0.0405 0.30599,0.05012 0.53446,0.201342 l 0.41543,0.274912 -0.46098,0.941547 c -0.57028,1.164787 -0.77244,2.045261 -0.75034,3.268073 0.0128,0.705483 0.0793,1.089563 0.26234,1.515167 0.49337,1.146875 1.90418,2.007306 2.99039,1.823792 0.64295,-0.108624 1.29348,-0.75123 1.29348,-1.277711 0,-0.717446 -0.46209,-1.059546 -1.08016,-0.799659 -0.46908,0.197229 -0.58823,0.664023 -0.23711,0.928877 l 0.25359,0.191286 -0.24202,0.12952 c -0.29596,0.158394 -0.56746,0.08216 -0.86165,-0.24191 -0.35507,-0.39114 -0.38638,-0.754991 -0.11181,-1.299365 0.32574,-0.64579 1.01856,-1.022303 1.71615,-0.932632 1.05206,0.135232 1.6626,0.875744 1.6626,2.016515 0,0.562043 -0.053,0.73867 -0.35736,1.191653 -0.62235,0.926112 -1.4827,1.323907 -2.63885,1.220078 -0.83143,-0.07467 -1.89434,-0.580558 -2.56014,-1.218499 -0.29115,-0.278968 -0.53855,-0.495142 -0.54979,-0.480387 -0.0112,0.01476 -0.12434,0.373201 -0.25134,0.796546 -0.24034,0.801136 -0.68894,1.604325 -1.13465,2.031521 -0.69493,0.666051 -2.0127,0.958856 -2.78902,0.619714 z"
         id="path1180" />
      <path
         inkscape:connector-curvature="0"
         style="fill:#0f3051;fill-opacity:0.27058824;stroke-width:0.10995889"
         d="m 186.07415,37.126954 c -0.16188,-0.106762 -0.40241,-0.331511 -0.53451,-0.499449 -0.22864,-0.29068 -0.23103,-0.315447 -0.0497,-0.515808 0.17861,-0.197357 0.21532,-0.199815 0.58947,-0.03947 0.21946,0.09403 0.63406,0.242559 0.92132,0.330035 0.60331,0.183732 0.65761,0.369101 0.20294,0.692846 -0.39046,0.278043 -0.74123,0.287933 -1.12952,0.03183 z"
         id="path1182" />
      <path
         style="fill:#0f3051;fill-opacity:0.27058824;stroke-width:0.08389987"
         d="m 175.63824,34.289492 c 0,-0.03044 0.0907,-0.214005 0.20162,-0.407969 0.11088,-0.193963 0.31788,-0.66041 0.45997,-1.036552 0.4521,-1.196672 0.75039,-1.545285 2.46807,-2.884467 0.90964,-0.709193 2.54525,-2.04738 4.01568,-3.285454 0.89959,-0.757434 1.11081,-0.889234 1.11081,-0.693123 0,0.08005 -1.22179,1.644777 -1.96661,2.518611 -0.26934,0.315999 -1.6464,2.102729 -2.50928,3.255771 -0.83856,1.120566 -1.44584,1.617548 -2.32084,1.899342 -0.18347,0.05909 -0.55875,0.22538 -0.83396,0.369546 -0.64143,0.336011 -0.62546,0.329267 -0.62546,0.264295 z"
         id="path1184"
         inkscape:connector-curvature="0" />
      <path
         inkscape:connector-curvature="0"
         style="fill:#0f3051;fill-opacity:0.27058824;stroke-width:0.10995889"
         d="m 184.12693,36.123082 c -0.12227,-0.07743 -0.12769,-0.167141 -0.0275,-0.454561 0.0686,-0.196953 0.12483,-0.523895 0.12483,-0.72654 0,-0.202646 0.0495,-0.368446 0.10995,-0.368446 0.0605,0 0.10996,0.04569 0.10996,0.101492 0,0.05584 0.19792,0.295513 0.43984,0.532643 0.24191,0.237135 0.43983,0.490874 0.43983,0.563871 0,0.133628 -0.6414,0.452823 -0.90363,0.449691 -0.0775,-6.42e-4 -0.20952,-0.04512 -0.2933,-0.09815 z"
         id="path1186" />
      <path
         inkscape:connector-curvature="0"
         style="fill:#0f3051;fill-opacity:0.27058824;stroke-width:0.10995889"
         d="m 189.97029,35.135141 c 0.16267,-0.193314 0.39045,-0.565553 0.50619,-0.827212 0.11575,-0.261645 0.26351,-0.508523 0.32838,-0.548616 0.0649,-0.04011 0.44158,-0.10311 0.83715,-0.140045 0.85086,-0.07946 0.86343,-0.0525 0.43568,0.933793 l -0.28353,0.653774 -0.67861,0.07263 c -0.37324,0.03992 -0.85014,0.102892 -1.0598,0.139892 l -0.38121,0.06727 z"
         id="path1188" />
      <path
         inkscape:connector-curvature="0"
         style="fill:#0f3051;fill-opacity:0.27058824;stroke-width:0.10995889"
         d="m 181.50215,33.089969 c -0.67656,-0.488647 -0.73729,-1.505899 -0.1583,-2.651517 0.65644,-1.298844 2.85941,-4.11181 3.22016,-4.11181 0.27965,0 0.27193,0.02696 -0.17523,0.612795 -1.51392,1.983354 -2.2434,4.305966 -1.7747,5.65057 0.094,0.269784 0.15087,0.510622 0.1263,0.535197 -0.0246,0.02458 -0.25742,0.067 -0.51743,0.09429 -0.32653,0.03427 -0.54948,-0.0058 -0.7208,-0.129527 z"
         id="path1190" />
      <path
         inkscape:connector-curvature="0"
         style="fill:#0f3051;fill-opacity:0.27058824;stroke-width:0.10995889"
         d="m 173.25571,30.992922 c -1.55197,-0.773378 -1.77205,-2.789252 -0.4485,-4.108172 0.44663,-0.44507 1.46788,-0.948549 2.25583,-1.112129 0.32144,-0.06673 0.58443,-0.141258 0.58443,-0.165614 0,-0.02432 -0.21429,-0.258584 -0.47621,-0.520499 -1.2244,-1.22441 -1.56323,-3.110372 -0.79448,-4.422156 0.51548,-0.879588 1.67368,-1.407506 2.55771,-1.165814 0.90115,0.246371 1.46195,0.946424 1.46195,1.824973 0,0.601397 -0.19835,1.02435 -0.66423,1.416369 -0.71184,0.598965 -1.86482,0.240242 -1.86482,-0.580186 0,-0.422452 0.19241,-0.539534 0.39988,-0.243328 0.21981,0.313829 0.52673,0.291668 0.80169,-0.05789 0.295,-0.375037 0.28771,-0.618097 -0.0296,-0.986992 -0.30401,-0.353447 -0.78597,-0.39682 -1.22353,-0.110119 -1.0899,0.714135 -0.92087,2.575061 0.33425,3.679853 1.18804,1.045755 3.54765,1.047225 5.62525,0.0032 l 0.80969,-0.406767 0.27379,0.43371 c 0.15059,0.238535 0.24392,0.482056 0.20739,0.541146 -0.23879,0.386358 -2.46416,1.172643 -3.7351,1.319703 -3.09797,0.35846 -3.71304,0.450217 -4.36227,0.650744 -0.98081,0.302939 -1.55902,0.743304 -1.79816,1.369462 -0.17121,0.448317 -0.1751,0.547538 -0.0358,0.913564 0.29901,0.785624 1.31588,1.165667 1.83211,0.684727 0.42591,-0.3968 0.23469,-1.175094 -0.26459,-1.076894 -0.10226,0.02015 -0.24071,0.135534 -0.30767,0.256492 -0.067,0.120952 -0.13292,0.239337 -0.14658,0.263071 -0.0799,0.138915 -0.36002,-0.285334 -0.36002,-0.545298 0,-0.462655 0.41126,-0.874692 0.94442,-0.9462 1.12403,-0.150763 1.79161,0.924539 1.369,2.205086 -0.35567,1.077684 -1.73084,1.491126 -2.94584,0.885666 z"
         id="path1192" />
      <path
         inkscape:connector-curvature="0"
         style="fill:#0f3051;fill-opacity:0.27058824;stroke-width:0.10995889"
         d="m 176.84422,28.546419 c -0.31913,-0.285155 -0.37206,-0.403315 -0.37206,-0.830774 0,-0.664812 0.13365,-0.783306 0.61198,-0.542589 0.53367,0.268557 1.72275,0.237494 2.63181,-0.06876 1.0133,-0.341375 2.37537,-1.031314 3.05359,-1.546769 0.31873,-0.242238 0.60325,-0.440429 0.63226,-0.440429 0.029,0 0.0528,0.09548 0.0528,0.212176 0,0.358473 -2.63386,2.363814 -4.06916,3.09812 -0.54005,0.276298 -0.89134,0.375814 -1.44158,0.408391 -0.68279,0.04043 -0.75041,0.02266 -1.09959,-0.289364 z"
         id="path1194" />
      <path
         inkscape:connector-curvature="0"
         style="fill:#0f3051;fill-opacity:0.27058824;stroke-width:0.10995889"
         d="m 171.62797,26.946631 c -0.0359,-0.142824 -0.0492,-0.427343 -0.0296,-0.63226 0.0303,-0.317103 0.10927,-0.40997 0.5304,-0.623636 0.61079,-0.309889 1.14015,-0.289852 1.18792,0.04499 0.0245,0.171506 -0.10781,0.337358 -0.49679,0.622897 -0.29157,0.214031 -0.6235,0.492331 -0.73763,0.618437 -0.26825,0.296411 -0.37407,0.289332 -0.45432,-0.03036 z"
         id="path1196" />
      <path
         style="fill:#0f3051;fill-opacity:0.27058824;stroke-width:0.10995889"
         d="m 187.19316,27.017931 c -0.0907,-0.03357 -0.23116,-0.113584 -0.31211,-0.177783 -0.0809,-0.0642 -0.36658,-0.103225 -0.63475,-0.08674 -0.42549,0.02619 -0.52543,-0.01316 -0.78449,-0.308348 -0.17155,-0.19549 -0.40472,-0.338334 -0.5523,-0.338334 -0.30225,0 -0.79491,-0.456339 -0.79589,-0.737226 -3.4e-4,-0.108584 -0.14929,-0.281971 -0.33088,-0.385312 -0.34093,-0.194007 -0.59945,-0.674279 -0.50101,-0.93079 0.0308,-0.08036 -0.0688,-0.330048 -0.22133,-0.554861 -0.20472,-0.301681 -0.25691,-0.481665 -0.19925,-0.687115 0.0188,-0.06686 0.0378,-0.152016 0.0542,-0.239321 l 1.7937,-0.0046 c 0.0879,0.747713 0.32593,1.263656 0.8033,1.74102 0.55207,0.552069 1.13622,0.808568 1.84146,0.808568 l 0.002,1.902919 z"
         id="path1198"
         inkscape:connector-curvature="0"
         sodipodi:nodetypes="ccccsccccccccccc" />
      <path
         inkscape:connector-curvature="0"
         style="fill:#0f3051;fill-opacity:0.27058824;stroke-width:0.10995889"
         d="m 173.61323,25.556931 c -0.0975,-0.307283 0.18948,-1.209546 0.38474,-1.209546 0.04,0 0.31772,0.242463 0.61719,0.53881 l 0.54449,0.538809 -0.52128,0.06915 c -0.28671,0.03799 -0.55098,0.117197 -0.58728,0.175921 -0.11278,0.182493 -0.36468,0.117397 -0.43786,-0.113148 z"
         id="path1200" />
      <path
         inkscape:connector-curvature="0"
         style="fill:#0f3051;fill-opacity:0.27058824;stroke-width:0.10995889"
         d="m 171.96385,25.065505 c -0.0605,-0.0215 -0.23546,-0.06649 -0.38886,-0.09993 -0.15339,-0.03344 -0.39565,-0.21871 -0.53834,-0.411716 -0.24908,-0.336895 -0.25138,-0.356817 -0.0574,-0.498614 0.35428,-0.259046 1.05463,-0.180613 1.6267,0.182179 0.28609,0.181428 0.57136,0.329874 0.63395,0.329874 0.0626,0 0.098,0.111332 0.0787,0.247405 -0.0311,0.219197 -0.10411,0.249836 -0.63991,0.268673 -0.33263,0.01168 -0.65426,0.0039 -0.71474,-0.01791 z"
         id="path1202" />
      <path
         inkscape:connector-curvature="0"
         style="fill:#0f3051;fill-opacity:0.27058824;stroke-width:0.10995889"
         d="m 173.13159,24.176656 c -0.39046,-0.328546 -0.67293,-0.804929 -0.67293,-1.13488 0,-0.255754 0.50711,-0.893567 0.71046,-0.893567 0.0791,0 0.17134,0.189111 0.20989,0.430129 0.0378,0.236571 0.16992,0.66609 0.29354,0.954485 0.22025,0.513806 0.2206,0.528535 0.0174,0.731752 -0.20322,0.203217 -0.21446,0.201445 -0.55834,-0.08792 z"
         id="path1204" />
      <path
         inkscape:connector-curvature="0"
         style="fill:#0f3051;fill-opacity:0.27058824;stroke-width:0.10995889"
         d="m 173.56924,20.883681 c -0.0172,-1.795084 -0.16043,-2.368159 -0.68331,-2.734404 -0.29154,-0.204205 -0.78056,-0.233561 -1.09425,-0.06568 -0.26896,0.143941 -0.28842,-0.08825 -0.0466,-0.555862 0.21358,-0.413012 0.4754,-0.547699 1.06373,-0.547185 1.3756,0.0013 1.84648,1.25132 1.24343,3.301119 -0.15169,0.515583 -0.31885,1.233067 -0.37148,1.594403 -0.0815,0.559937 -0.098,0.413326 -0.11151,-0.99239 z"
         id="path1206" />
      <path
         inkscape:connector-curvature="0"
         style="fill:#0f3051;fill-opacity:0.27058824;stroke-width:0.10995889"
         d="m 174.44618,19.824988 c 0.004,-0.08297 0.0664,-0.542833 0.13745,-1.021912 l 0.12919,-0.871065 0.75894,-0.310999 c 0.41741,-0.171044 0.77615,-0.310999 0.7972,-0.310999 0.0842,0 0.03,0.959882 -0.0757,1.340477 -0.0941,0.338924 -0.20733,0.45161 -0.68663,0.683521 -0.31566,0.152734 -0.68526,0.359628 -0.82133,0.459767 -0.19298,0.142028 -0.24559,0.148889 -0.23915,0.03119 z"
         id="path1208" />
      <path
         style="opacity:1;fill:#0f3051;fill-opacity:0.27058824;stroke:none;stroke-width:0.40000001;stroke-miterlimit:4;stroke-dasharray:none;stroke-opacity:1"
         d="m 187.34538,22.686809 h -1.6409 c 0.0326,0.94542 0.59768,1.640902 1.66263,1.662636 z"
         id="path1210"
         inkscape:connector-curvature="0"
         sodipodi:nodetypes="cccc" />
    </g>
    <g
       id="g1254"
       transform="matrix(1,0,0,-1,-5.0511652e-5,297.00016)">
      <path
         inkscape:connector-curvature="0"
         style="fill:#0f3051;fill-opacity:0.27058824;stroke-width:0.10995889"
         d="m 185.01827,38.649381 c -0.27979,-0.279802 -0.33252,-0.43303 -0.39814,-1.157259 -0.0813,-0.897443 -0.046,-1.050023 0.24289,-1.047995 0.26571,0.0019 0.90067,1.202114 0.90067,1.702506 0,0.41988 -0.15978,0.825248 -0.32529,0.825248 -0.0537,0 -0.24276,-0.145128 -0.42013,-0.3225 z"
         id="path1214" />
      <path
         inkscape:connector-curvature="0"
         style="fill:#0f3051;fill-opacity:0.27058824;stroke-width:0.10995889"
         d="m 170.80921,15.000118 v 0.714685 0.714685 h 7.58713 7.58714 v 0.713135 0.713651 l -4.07676,0.02894 -4.07727,0.02894 1.85054,1.867586 1.85001,1.867586 2.91404,0.0021 2.91403,0.0021 0.031,-1.170471 0.031,-1.170471 0.40876,-0.05116 c 0.22481,-0.02814 0.44605,-0.03058 0.49145,-0.0052 0.0454,0.02538 0.0822,0.587339 0.0822,1.24902 v 1.203027 h 1.20975 1.20974 v 0.49506 0.494544 h -1.20974 -1.20975 v 2.944523 2.944522 l 1.86087,1.783871 c 1.02334,0.981062 1.88943,1.783872 1.92443,1.783872 0.0351,0 0.0636,-1.806295 0.0636,-4.013708 v -4.013704 h 0.65991 0.65939 v 7.422287 7.421768 h 0.71469 0.71468 v -8.136971 -8.136971 h -1.37459 -1.37459 v -0.49506 -0.494543 h 1.37459 1.37459 v -3.353801 -3.3538 h -3.29541 -3.2954 l -0.031,1.401982 -0.0305,1.401981 -0.46715,0.03359 -0.46767,0.03411 v -1.436088 -1.435571 h -8.30182 z m 19.02313,1.425236 1.89652,0.02997 1.89704,0.02997 v 1.869136 1.869653 l -0.60926,0.03204 c -0.33503,0.01778 -0.6444,-0.0031 -0.6873,-0.04599 -0.0429,-0.04295 -0.078,-0.588949 -0.078,-1.21388 v -1.136364 h -1.20974 -1.20923 V 17.14262 Z m 0.7276,2.813265 c 0.0897,-0.001 0.15662,0.0049 0.17932,0.01757 0.0454,0.02538 0.0827,0.265751 0.0827,0.534334 v 0.488859 h -0.42168 c -0.52162,0 -0.56792,-0.04596 -0.56792,-0.556555 0,-0.39069 0.019,-0.411664 0.41238,-0.460954 0.11339,-0.01435 0.22554,-0.02222 0.31522,-0.02325 z m -8.32094,0.0078 c 0.38392,-6.08e-4 0.91558,0.0093 1.63401,0.02015 l 2.12287,0.03204 -0.0336,0.462504 -0.0336,0.463021 -1.87172,0.02997 -1.8712,0.02997 -0.47905,-0.487825 c -0.44287,-0.45127 -0.61946,-0.547988 0.53227,-0.549837 z m 7.59334,4.880839 h 0.49454 0.49506 v 2.364196 h -5.3e-4 c 0,1.300263 -0.0225,2.364197 -0.0501,2.364197 -0.15163,0 -0.92785,-0.858128 -0.94465,-1.044381 -0.011,-0.120952 -0.0142,-0.999297 -0.007,-1.951819 z"
         id="path1216" />
      <path
         inkscape:connector-curvature="0"
         style="fill:#0f3051;fill-opacity:0.27058824;stroke-width:0.10995889"
         d="m 191.58764,38.099457 c 0.16788,-0.313682 0.13853,-0.802708 -0.0657,-1.094248 -0.35361,-0.504852 -0.95366,-0.666565 -2.51448,-0.677635 -0.78621,-0.0058 -1.52843,-0.05269 -1.64938,-0.104651 -0.16299,-0.07003 -0.0761,-0.0965 0.33568,-0.102225 0.30558,-0.0045 1.02306,-0.130501 1.5944,-0.280565 2.02884,-0.53286 3.08814,-0.274969 3.40472,0.828899 0.21524,0.750498 -0.30364,1.643115 -0.95515,1.643115 -0.22687,0 -0.24795,-0.02991 -0.15011,-0.21269 z"
         id="path1218" />
      <path
         inkscape:connector-curvature="0"
         style="fill:#0f3051;fill-opacity:0.27058824;stroke-width:0.10995889"
         d="m 182.65083,38.079757 c -0.18098,-0.105273 -0.15502,-0.162687 0.28745,-0.635733 0.26752,-0.285995 0.54435,-0.628262 0.61517,-0.760593 0.14207,-0.265471 0.64182,-0.334143 0.73147,-0.100518 0.0778,0.202601 -0.23248,1.163947 -0.45492,1.409747 -0.21024,0.232309 -0.84849,0.279455 -1.17917,0.0871 z"
         id="path1220" />
      <path
         inkscape:connector-curvature="0"
         style="fill:#0f3051;fill-opacity:0.27058824;stroke-width:0.10995889"
         d="m 179.99085,37.609626 c -0.93403,-0.408032 -1.51032,-1.274348 -1.51032,-2.270415 0,-1.213281 0.73301,-1.975222 1.90024,-1.975222 0.68171,0 1.13788,0.242321 1.36764,0.726514 0.2229,0.469721 0.20949,0.796406 -0.0502,1.222305 -0.22177,0.363716 -0.55976,0.516411 -1.00033,0.451898 -0.3283,-0.04807 -0.408,-0.309645 -0.11749,-0.38562 0.5323,-0.139199 0.35545,-0.91551 -0.20855,-0.91551 -0.79307,0 -1.04381,0.995271 -0.42757,1.697128 0.43577,0.496311 0.94029,0.60349 1.5489,0.329053 1.06445,-0.480002 1.53554,-1.761012 1.89819,-5.16166 0.0904,-0.847594 0.271,-1.886706 0.40137,-2.30914 0.25548,-0.827892 0.90117,-2.189985 1.0949,-2.309711 0.0655,-0.0405 0.30599,0.05012 0.53446,0.201342 l 0.41543,0.274912 -0.46098,0.941547 c -0.57028,1.164787 -0.77244,2.045261 -0.75034,3.268073 0.0128,0.705483 0.0793,1.089563 0.26234,1.515167 0.49337,1.146875 1.90418,2.007306 2.99039,1.823792 0.64295,-0.108624 1.29348,-0.75123 1.29348,-1.277711 0,-0.717446 -0.46209,-1.059546 -1.08016,-0.799659 -0.46908,0.197229 -0.58823,0.664023 -0.23711,0.928877 l 0.25359,0.191286 -0.24202,0.12952 c -0.29596,0.158394 -0.56746,0.08216 -0.86165,-0.24191 -0.35507,-0.39114 -0.38638,-0.754991 -0.11181,-1.299365 0.32574,-0.64579 1.01856,-1.022303 1.71615,-0.932632 1.05206,0.135232 1.6626,0.875744 1.6626,2.016515 0,0.562043 -0.053,0.73867 -0.35736,1.191653 -0.62235,0.926112 -1.4827,1.323907 -2.63885,1.220078 -0.83143,-0.07467 -1.89434,-0.580558 -2.56014,-1.218499 -0.29115,-0.278968 -0.53855,-0.495142 -0.54979,-0.480387 -0.0112,0.01476 -0.12434,0.373201 -0.25134,0.796546 -0.24034,0.801136 -0.68894,1.604325 -1.13465,2.031521 -0.69493,0.666051 -2.0127,0.958856 -2.78902,0.619714 z"
         id="path1222" />
      <path
         inkscape:connector-curvature="0"
         style="fill:#0f3051;fill-opacity:0.27058824;stroke-width:0.10995889"
         d="m 186.07415,37.126954 c -0.16188,-0.106762 -0.40241,-0.331511 -0.53451,-0.499449 -0.22864,-0.29068 -0.23103,-0.315447 -0.0497,-0.515808 0.17861,-0.197357 0.21532,-0.199815 0.58947,-0.03947 0.21946,0.09403 0.63406,0.242559 0.92132,0.330035 0.60331,0.183732 0.65761,0.369101 0.20294,0.692846 -0.39046,0.278043 -0.74123,0.287933 -1.12952,0.03183 z"
         id="path1224" />
      <path
         style="fill:#0f3051;fill-opacity:0.27058824;stroke-width:0.08389987"
         d="m 175.63824,34.289492 c 0,-0.03044 0.0907,-0.214005 0.20162,-0.407969 0.11088,-0.193963 0.31788,-0.66041 0.45997,-1.036552 0.4521,-1.196672 0.75039,-1.545285 2.46807,-2.884467 0.90964,-0.709193 2.54525,-2.04738 4.01568,-3.285454 0.89959,-0.757434 1.11081,-0.889234 1.11081,-0.693123 0,0.08005 -1.22179,1.644777 -1.96661,2.518611 -0.26934,0.315999 -1.6464,2.102729 -2.50928,3.255771 -0.83856,1.120566 -1.44584,1.617548 -2.32084,1.899342 -0.18347,0.05909 -0.55875,0.22538 -0.83396,0.369546 -0.64143,0.336011 -0.62546,0.329267 -0.62546,0.264295 z"
         id="path1226"
         inkscape:connector-curvature="0" />
      <path
         inkscape:connector-curvature="0"
         style="fill:#0f3051;fill-opacity:0.27058824;stroke-width:0.10995889"
         d="m 184.12693,36.123082 c -0.12227,-0.07743 -0.12769,-0.167141 -0.0275,-0.454561 0.0686,-0.196953 0.12483,-0.523895 0.12483,-0.72654 0,-0.202646 0.0495,-0.368446 0.10995,-0.368446 0.0605,0 0.10996,0.04569 0.10996,0.101492 0,0.05584 0.19792,0.295513 0.43984,0.532643 0.24191,0.237135 0.43983,0.490874 0.43983,0.563871 0,0.133628 -0.6414,0.452823 -0.90363,0.449691 -0.0775,-6.42e-4 -0.20952,-0.04512 -0.2933,-0.09815 z"
         id="path1228" />
      <path
         inkscape:connector-curvature="0"
         style="fill:#0f3051;fill-opacity:0.27058824;stroke-width:0.10995889"
         d="m 189.97029,35.135141 c 0.16267,-0.193314 0.39045,-0.565553 0.50619,-0.827212 0.11575,-0.261645 0.26351,-0.508523 0.32838,-0.548616 0.0649,-0.04011 0.44158,-0.10311 0.83715,-0.140045 0.85086,-0.07946 0.86343,-0.0525 0.43568,0.933793 l -0.28353,0.653774 -0.67861,0.07263 c -0.37324,0.03992 -0.85014,0.102892 -1.0598,0.139892 l -0.38121,0.06727 z"
         id="path1230" />
      <path
         inkscape:connector-curvature="0"
         style="fill:#0f3051;fill-opacity:0.27058824;stroke-width:0.10995889"
         d="m 181.50215,33.089969 c -0.67656,-0.488647 -0.73729,-1.505899 -0.1583,-2.651517 0.65644,-1.298844 2.85941,-4.11181 3.22016,-4.11181 0.27965,0 0.27193,0.02696 -0.17523,0.612795 -1.51392,1.983354 -2.2434,4.305966 -1.7747,5.65057 0.094,0.269784 0.15087,0.510622 0.1263,0.535197 -0.0246,0.02458 -0.25742,0.067 -0.51743,0.09429 -0.32653,0.03427 -0.54948,-0.0058 -0.7208,-0.129527 z"
         id="path1232" />
      <path
         inkscape:connector-curvature="0"
         style="fill:#0f3051;fill-opacity:0.27058824;stroke-width:0.10995889"
         d="m 173.25571,30.992922 c -1.55197,-0.773378 -1.77205,-2.789252 -0.4485,-4.108172 0.44663,-0.44507 1.46788,-0.948549 2.25583,-1.112129 0.32144,-0.06673 0.58443,-0.141258 0.58443,-0.165614 0,-0.02432 -0.21429,-0.258584 -0.47621,-0.520499 -1.2244,-1.22441 -1.56323,-3.110372 -0.79448,-4.422156 0.51548,-0.879588 1.67368,-1.407506 2.55771,-1.165814 0.90115,0.246371 1.46195,0.946424 1.46195,1.824973 0,0.601397 -0.19835,1.02435 -0.66423,1.416369 -0.71184,0.598965 -1.86482,0.240242 -1.86482,-0.580186 0,-0.422452 0.19241,-0.539534 0.39988,-0.243328 0.21981,0.313829 0.52673,0.291668 0.80169,-0.05789 0.295,-0.375037 0.28771,-0.618097 -0.0296,-0.986992 -0.30401,-0.353447 -0.78597,-0.39682 -1.22353,-0.110119 -1.0899,0.714135 -0.92087,2.575061 0.33425,3.679853 1.18804,1.045755 3.54765,1.047225 5.62525,0.0032 l 0.80969,-0.406767 0.27379,0.43371 c 0.15059,0.238535 0.24392,0.482056 0.20739,0.541146 -0.23879,0.386358 -2.46416,1.172643 -3.7351,1.319703 -3.09797,0.35846 -3.71304,0.450217 -4.36227,0.650744 -0.98081,0.302939 -1.55902,0.743304 -1.79816,1.369462 -0.17121,0.448317 -0.1751,0.547538 -0.0358,0.913564 0.29901,0.785624 1.31588,1.165667 1.83211,0.684727 0.42591,-0.3968 0.23469,-1.175094 -0.26459,-1.076894 -0.10226,0.02015 -0.24071,0.135534 -0.30767,0.256492 -0.067,0.120952 -0.13292,0.239337 -0.14658,0.263071 -0.0799,0.138915 -0.36002,-0.285334 -0.36002,-0.545298 0,-0.462655 0.41126,-0.874692 0.94442,-0.9462 1.12403,-0.150763 1.79161,0.924539 1.369,2.205086 -0.35567,1.077684 -1.73084,1.491126 -2.94584,0.885666 z"
         id="path1234" />
      <path
         inkscape:connector-curvature="0"
         style="fill:#0f3051;fill-opacity:0.27058824;stroke-width:0.10995889"
         d="m 176.84422,28.546419 c -0.31913,-0.285155 -0.37206,-0.403315 -0.37206,-0.830774 0,-0.664812 0.13365,-0.783306 0.61198,-0.542589 0.53367,0.268557 1.72275,0.237494 2.63181,-0.06876 1.0133,-0.341375 2.37537,-1.031314 3.05359,-1.546769 0.31873,-0.242238 0.60325,-0.440429 0.63226,-0.440429 0.029,0 0.0528,0.09548 0.0528,0.212176 0,0.358473 -2.63386,2.363814 -4.06916,3.09812 -0.54005,0.276298 -0.89134,0.375814 -1.44158,0.408391 -0.68279,0.04043 -0.75041,0.02266 -1.09959,-0.289364 z"
         id="path1236" />
      <path
         inkscape:connector-curvature="0"
         style="fill:#0f3051;fill-opacity:0.27058824;stroke-width:0.10995889"
         d="m 171.62797,26.946631 c -0.0359,-0.142824 -0.0492,-0.427343 -0.0296,-0.63226 0.0303,-0.317103 0.10927,-0.40997 0.5304,-0.623636 0.61079,-0.309889 1.14015,-0.289852 1.18792,0.04499 0.0245,0.171506 -0.10781,0.337358 -0.49679,0.622897 -0.29157,0.214031 -0.6235,0.492331 -0.73763,0.618437 -0.26825,0.296411 -0.37407,0.289332 -0.45432,-0.03036 z"
         id="path1238" />
      <path
         style="fill:#0f3051;fill-opacity:0.27058824;stroke-width:0.10995889"
         d="m 187.19316,27.017931 c -0.0907,-0.03357 -0.23116,-0.113584 -0.31211,-0.177783 -0.0809,-0.0642 -0.36658,-0.103225 -0.63475,-0.08674 -0.42549,0.02619 -0.52543,-0.01316 -0.78449,-0.308348 -0.17155,-0.19549 -0.40472,-0.338334 -0.5523,-0.338334 -0.30225,0 -0.79491,-0.456339 -0.79589,-0.737226 -3.4e-4,-0.108584 -0.14929,-0.281971 -0.33088,-0.385312 -0.34093,-0.194007 -0.59945,-0.674279 -0.50101,-0.93079 0.0308,-0.08036 -0.0688,-0.330048 -0.22133,-0.554861 -0.20472,-0.301681 -0.25691,-0.481665 -0.19925,-0.687115 0.0188,-0.06686 0.0378,-0.152016 0.0542,-0.239321 l 1.7937,-0.0046 c 0.0879,0.747713 0.32593,1.263656 0.8033,1.74102 0.55207,0.552069 1.13622,0.808568 1.84146,0.808568 l 0.002,1.902919 z"
         id="path1240"
         inkscape:connector-curvature="0"
         sodipodi:nodetypes="ccccsccccccccccc" />
      <path
         inkscape:connector-curvature="0"
         style="fill:#0f3051;fill-opacity:0.27058824;stroke-width:0.10995889"
         d="m 173.61323,25.556931 c -0.0975,-0.307283 0.18948,-1.209546 0.38474,-1.209546 0.04,0 0.31772,0.242463 0.61719,0.53881 l 0.54449,0.538809 -0.52128,0.06915 c -0.28671,0.03799 -0.55098,0.117197 -0.58728,0.175921 -0.11278,0.182493 -0.36468,0.117397 -0.43786,-0.113148 z"
         id="path1242" />
      <path
         inkscape:connector-curvature="0"
         style="fill:#0f3051;fill-opacity:0.27058824;stroke-width:0.10995889"
         d="m 171.96385,25.065505 c -0.0605,-0.0215 -0.23546,-0.06649 -0.38886,-0.09993 -0.15339,-0.03344 -0.39565,-0.21871 -0.53834,-0.411716 -0.24908,-0.336895 -0.25138,-0.356817 -0.0574,-0.498614 0.35428,-0.259046 1.05463,-0.180613 1.6267,0.182179 0.28609,0.181428 0.57136,0.329874 0.63395,0.329874 0.0626,0 0.098,0.111332 0.0787,0.247405 -0.0311,0.219197 -0.10411,0.249836 -0.63991,0.268673 -0.33263,0.01168 -0.65426,0.0039 -0.71474,-0.01791 z"
         id="path1244" />
      <path
         inkscape:connector-curvature="0"
         style="fill:#0f3051;fill-opacity:0.27058824;stroke-width:0.10995889"
         d="m 173.13159,24.176656 c -0.39046,-0.328546 -0.67293,-0.804929 -0.67293,-1.13488 0,-0.255754 0.50711,-0.893567 0.71046,-0.893567 0.0791,0 0.17134,0.189111 0.20989,0.430129 0.0378,0.236571 0.16992,0.66609 0.29354,0.954485 0.22025,0.513806 0.2206,0.528535 0.0174,0.731752 -0.20322,0.203217 -0.21446,0.201445 -0.55834,-0.08792 z"
         id="path1246" />
      <path
         inkscape:connector-curvature="0"
         style="fill:#0f3051;fill-opacity:0.27058824;stroke-width:0.10995889"
         d="m 173.56924,20.883681 c -0.0172,-1.795084 -0.16043,-2.368159 -0.68331,-2.734404 -0.29154,-0.204205 -0.78056,-0.233561 -1.09425,-0.06568 -0.26896,0.143941 -0.28842,-0.08825 -0.0466,-0.555862 0.21358,-0.413012 0.4754,-0.547699 1.06373,-0.547185 1.3756,0.0013 1.84648,1.25132 1.24343,3.301119 -0.15169,0.515583 -0.31885,1.233067 -0.37148,1.594403 -0.0815,0.559937 -0.098,0.413326 -0.11151,-0.99239 z"
         id="path1248" />
      <path
         inkscape:connector-curvature="0"
         style="fill:#0f3051;fill-opacity:0.27058824;stroke-width:0.10995889"
         d="m 174.44618,19.824988 c 0.004,-0.08297 0.0664,-0.542833 0.13745,-1.021912 l 0.12919,-0.871065 0.75894,-0.310999 c 0.41741,-0.171044 0.77615,-0.310999 0.7972,-0.310999 0.0842,0 0.03,0.959882 -0.0757,1.340477 -0.0941,0.338924 -0.20733,0.45161 -0.68663,0.683521 -0.31566,0.152734 -0.68526,0.359628 -0.82133,0.459767 -0.19298,0.142028 -0.24559,0.148889 -0.23915,0.03119 z"
         id="path1250" />
      <path
         style="opacity:1;fill:#0f3051;fill-opacity:0.27058824;stroke:none;stroke-width:0.40000001;stroke-miterlimit:4;stroke-dasharray:none;stroke-opacity:1"
         d="m 187.34538,22.686809 h -1.6409 c 0.0326,0.94542 0.59768,1.640902 1.66263,1.662636 z"
         id="path1252"
         inkscape:connector-curvature="0"
         sodipodi:nodetypes="cccc" />
    </g>
    <g
       transform="rotate(-180,105.00002,148.50008)"
       id="g1296">
      <path
         id="path1256"
         d="m 185.01827,38.649381 c -0.27979,-0.279802 -0.33252,-0.43303 -0.39814,-1.157259 -0.0813,-0.897443 -0.046,-1.050023 0.24289,-1.047995 0.26571,0.0019 0.90067,1.202114 0.90067,1.702506 0,0.41988 -0.15978,0.825248 -0.32529,0.825248 -0.0537,0 -0.24276,-0.145128 -0.42013,-0.3225 z"
         style="fill:#0f3051;fill-opacity:0.27058824;stroke-width:0.10995889"
         inkscape:connector-curvature="0" />
      <path
         id="path1258"
         d="m 170.80921,15.000118 v 0.714685 0.714685 h 7.58713 7.58714 v 0.713135 0.713651 l -4.07676,0.02894 -4.07727,0.02894 1.85054,1.867586 1.85001,1.867586 2.91404,0.0021 2.91403,0.0021 0.031,-1.170471 0.031,-1.170471 0.40876,-0.05116 c 0.22481,-0.02814 0.44605,-0.03058 0.49145,-0.0052 0.0454,0.02538 0.0822,0.587339 0.0822,1.24902 v 1.203027 h 1.20975 1.20974 v 0.49506 0.494544 h -1.20974 -1.20975 v 2.944523 2.944522 l 1.86087,1.783871 c 1.02334,0.981062 1.88943,1.783872 1.92443,1.783872 0.0351,0 0.0636,-1.806295 0.0636,-4.013708 v -4.013704 h 0.65991 0.65939 v 7.422287 7.421768 h 0.71469 0.71468 v -8.136971 -8.136971 h -1.37459 -1.37459 v -0.49506 -0.494543 h 1.37459 1.37459 v -3.353801 -3.3538 h -3.29541 -3.2954 l -0.031,1.401982 -0.0305,1.401981 -0.46715,0.03359 -0.46767,0.03411 v -1.436088 -1.435571 h -8.30182 z m 19.02313,1.425236 1.89652,0.02997 1.89704,0.02997 v 1.869136 1.869653 l -0.60926,0.03204 c -0.33503,0.01778 -0.6444,-0.0031 -0.6873,-0.04599 -0.0429,-0.04295 -0.078,-0.588949 -0.078,-1.21388 v -1.136364 h -1.20974 -1.20923 V 17.14262 Z m 0.7276,2.813265 c 0.0897,-0.001 0.15662,0.0049 0.17932,0.01757 0.0454,0.02538 0.0827,0.265751 0.0827,0.534334 v 0.488859 h -0.42168 c -0.52162,0 -0.56792,-0.04596 -0.56792,-0.556555 0,-0.39069 0.019,-0.411664 0.41238,-0.460954 0.11339,-0.01435 0.22554,-0.02222 0.31522,-0.02325 z m -8.32094,0.0078 c 0.38392,-6.08e-4 0.91558,0.0093 1.63401,0.02015 l 2.12287,0.03204 -0.0336,0.462504 -0.0336,0.463021 -1.87172,0.02997 -1.8712,0.02997 -0.47905,-0.487825 c -0.44287,-0.45127 -0.61946,-0.547988 0.53227,-0.549837 z m 7.59334,4.880839 h 0.49454 0.49506 v 2.364196 h -5.3e-4 c 0,1.300263 -0.0225,2.364197 -0.0501,2.364197 -0.15163,0 -0.92785,-0.858128 -0.94465,-1.044381 -0.011,-0.120952 -0.0142,-0.999297 -0.007,-1.951819 z"
         style="fill:#0f3051;fill-opacity:0.27058824;stroke-width:0.10995889"
         inkscape:connector-curvature="0" />
      <path
         id="path1260"
         d="m 191.58764,38.099457 c 0.16788,-0.313682 0.13853,-0.802708 -0.0657,-1.094248 -0.35361,-0.504852 -0.95366,-0.666565 -2.51448,-0.677635 -0.78621,-0.0058 -1.52843,-0.05269 -1.64938,-0.104651 -0.16299,-0.07003 -0.0761,-0.0965 0.33568,-0.102225 0.30558,-0.0045 1.02306,-0.130501 1.5944,-0.280565 2.02884,-0.53286 3.08814,-0.274969 3.40472,0.828899 0.21524,0.750498 -0.30364,1.643115 -0.95515,1.643115 -0.22687,0 -0.24795,-0.02991 -0.15011,-0.21269 z"
         style="fill:#0f3051;fill-opacity:0.27058824;stroke-width:0.10995889"
         inkscape:connector-curvature="0" />
      <path
         id="path1262"
         d="m 182.65083,38.079757 c -0.18098,-0.105273 -0.15502,-0.162687 0.28745,-0.635733 0.26752,-0.285995 0.54435,-0.628262 0.61517,-0.760593 0.14207,-0.265471 0.64182,-0.334143 0.73147,-0.100518 0.0778,0.202601 -0.23248,1.163947 -0.45492,1.409747 -0.21024,0.232309 -0.84849,0.279455 -1.17917,0.0871 z"
         style="fill:#0f3051;fill-opacity:0.27058824;stroke-width:0.10995889"
         inkscape:connector-curvature="0" />
      <path
         id="path1264"
         d="m 179.99085,37.609626 c -0.93403,-0.408032 -1.51032,-1.274348 -1.51032,-2.270415 0,-1.213281 0.73301,-1.975222 1.90024,-1.975222 0.68171,0 1.13788,0.242321 1.36764,0.726514 0.2229,0.469721 0.20949,0.796406 -0.0502,1.222305 -0.22177,0.363716 -0.55976,0.516411 -1.00033,0.451898 -0.3283,-0.04807 -0.408,-0.309645 -0.11749,-0.38562 0.5323,-0.139199 0.35545,-0.91551 -0.20855,-0.91551 -0.79307,0 -1.04381,0.995271 -0.42757,1.697128 0.43577,0.496311 0.94029,0.60349 1.5489,0.329053 1.06445,-0.480002 1.53554,-1.761012 1.89819,-5.16166 0.0904,-0.847594 0.271,-1.886706 0.40137,-2.30914 0.25548,-0.827892 0.90117,-2.189985 1.0949,-2.309711 0.0655,-0.0405 0.30599,0.05012 0.53446,0.201342 l 0.41543,0.274912 -0.46098,0.941547 c -0.57028,1.164787 -0.77244,2.045261 -0.75034,3.268073 0.0128,0.705483 0.0793,1.089563 0.26234,1.515167 0.49337,1.146875 1.90418,2.007306 2.99039,1.823792 0.64295,-0.108624 1.29348,-0.75123 1.29348,-1.277711 0,-0.717446 -0.46209,-1.059546 -1.08016,-0.799659 -0.46908,0.197229 -0.58823,0.664023 -0.23711,0.928877 l 0.25359,0.191286 -0.24202,0.12952 c -0.29596,0.158394 -0.56746,0.08216 -0.86165,-0.24191 -0.35507,-0.39114 -0.38638,-0.754991 -0.11181,-1.299365 0.32574,-0.64579 1.01856,-1.022303 1.71615,-0.932632 1.05206,0.135232 1.6626,0.875744 1.6626,2.016515 0,0.562043 -0.053,0.73867 -0.35736,1.191653 -0.62235,0.926112 -1.4827,1.323907 -2.63885,1.220078 -0.83143,-0.07467 -1.89434,-0.580558 -2.56014,-1.218499 -0.29115,-0.278968 -0.53855,-0.495142 -0.54979,-0.480387 -0.0112,0.01476 -0.12434,0.373201 -0.25134,0.796546 -0.24034,0.801136 -0.68894,1.604325 -1.13465,2.031521 -0.69493,0.666051 -2.0127,0.958856 -2.78902,0.619714 z"
         style="fill:#0f3051;fill-opacity:0.27058824;stroke-width:0.10995889"
         inkscape:connector-curvature="0" />
      <path
         id="path1266"
         d="m 186.07415,37.126954 c -0.16188,-0.106762 -0.40241,-0.331511 -0.53451,-0.499449 -0.22864,-0.29068 -0.23103,-0.315447 -0.0497,-0.515808 0.17861,-0.197357 0.21532,-0.199815 0.58947,-0.03947 0.21946,0.09403 0.63406,0.242559 0.92132,0.330035 0.60331,0.183732 0.65761,0.369101 0.20294,0.692846 -0.39046,0.278043 -0.74123,0.287933 -1.12952,0.03183 z"
         style="fill:#0f3051;fill-opacity:0.27058824;stroke-width:0.10995889"
         inkscape:connector-curvature="0" />
      <path
         inkscape:connector-curvature="0"
         id="path1268"
         d="m 175.63824,34.289492 c 0,-0.03044 0.0907,-0.214005 0.20162,-0.407969 0.11088,-0.193963 0.31788,-0.66041 0.45997,-1.036552 0.4521,-1.196672 0.75039,-1.545285 2.46807,-2.884467 0.90964,-0.709193 2.54525,-2.04738 4.01568,-3.285454 0.89959,-0.757434 1.11081,-0.889234 1.11081,-0.693123 0,0.08005 -1.22179,1.644777 -1.96661,2.518611 -0.26934,0.315999 -1.6464,2.102729 -2.50928,3.255771 -0.83856,1.120566 -1.44584,1.617548 -2.32084,1.899342 -0.18347,0.05909 -0.55875,0.22538 -0.83396,0.369546 -0.64143,0.336011 -0.62546,0.329267 -0.62546,0.264295 z"
         style="fill:#0f3051;fill-opacity:0.27058824;stroke-width:0.08389987" />
      <path
         id="path1270"
         d="m 184.12693,36.123082 c -0.12227,-0.07743 -0.12769,-0.167141 -0.0275,-0.454561 0.0686,-0.196953 0.12483,-0.523895 0.12483,-0.72654 0,-0.202646 0.0495,-0.368446 0.10995,-0.368446 0.0605,0 0.10996,0.04569 0.10996,0.101492 0,0.05584 0.19792,0.295513 0.43984,0.532643 0.24191,0.237135 0.43983,0.490874 0.43983,0.563871 0,0.133628 -0.6414,0.452823 -0.90363,0.449691 -0.0775,-6.42e-4 -0.20952,-0.04512 -0.2933,-0.09815 z"
         style="fill:#0f3051;fill-opacity:0.27058824;stroke-width:0.10995889"
         inkscape:connector-curvature="0" />
      <path
         id="path1272"
         d="m 189.97029,35.135141 c 0.16267,-0.193314 0.39045,-0.565553 0.50619,-0.827212 0.11575,-0.261645 0.26351,-0.508523 0.32838,-0.548616 0.0649,-0.04011 0.44158,-0.10311 0.83715,-0.140045 0.85086,-0.07946 0.86343,-0.0525 0.43568,0.933793 l -0.28353,0.653774 -0.67861,0.07263 c -0.37324,0.03992 -0.85014,0.102892 -1.0598,0.139892 l -0.38121,0.06727 z"
         style="fill:#0f3051;fill-opacity:0.27058824;stroke-width:0.10995889"
         inkscape:connector-curvature="0" />
      <path
         id="path1274"
         d="m 181.50215,33.089969 c -0.67656,-0.488647 -0.73729,-1.505899 -0.1583,-2.651517 0.65644,-1.298844 2.85941,-4.11181 3.22016,-4.11181 0.27965,0 0.27193,0.02696 -0.17523,0.612795 -1.51392,1.983354 -2.2434,4.305966 -1.7747,5.65057 0.094,0.269784 0.15087,0.510622 0.1263,0.535197 -0.0246,0.02458 -0.25742,0.067 -0.51743,0.09429 -0.32653,0.03427 -0.54948,-0.0058 -0.7208,-0.129527 z"
         style="fill:#0f3051;fill-opacity:0.27058824;stroke-width:0.10995889"
         inkscape:connector-curvature="0" />
      <path
         id="path1276"
         d="m 173.25571,30.992922 c -1.55197,-0.773378 -1.77205,-2.789252 -0.4485,-4.108172 0.44663,-0.44507 1.46788,-0.948549 2.25583,-1.112129 0.32144,-0.06673 0.58443,-0.141258 0.58443,-0.165614 0,-0.02432 -0.21429,-0.258584 -0.47621,-0.520499 -1.2244,-1.22441 -1.56323,-3.110372 -0.79448,-4.422156 0.51548,-0.879588 1.67368,-1.407506 2.55771,-1.165814 0.90115,0.246371 1.46195,0.946424 1.46195,1.824973 0,0.601397 -0.19835,1.02435 -0.66423,1.416369 -0.71184,0.598965 -1.86482,0.240242 -1.86482,-0.580186 0,-0.422452 0.19241,-0.539534 0.39988,-0.243328 0.21981,0.313829 0.52673,0.291668 0.80169,-0.05789 0.295,-0.375037 0.28771,-0.618097 -0.0296,-0.986992 -0.30401,-0.353447 -0.78597,-0.39682 -1.22353,-0.110119 -1.0899,0.714135 -0.92087,2.575061 0.33425,3.679853 1.18804,1.045755 3.54765,1.047225 5.62525,0.0032 l 0.80969,-0.406767 0.27379,0.43371 c 0.15059,0.238535 0.24392,0.482056 0.20739,0.541146 -0.23879,0.386358 -2.46416,1.172643 -3.7351,1.319703 -3.09797,0.35846 -3.71304,0.450217 -4.36227,0.650744 -0.98081,0.302939 -1.55902,0.743304 -1.79816,1.369462 -0.17121,0.448317 -0.1751,0.547538 -0.0358,0.913564 0.29901,0.785624 1.31588,1.165667 1.83211,0.684727 0.42591,-0.3968 0.23469,-1.175094 -0.26459,-1.076894 -0.10226,0.02015 -0.24071,0.135534 -0.30767,0.256492 -0.067,0.120952 -0.13292,0.239337 -0.14658,0.263071 -0.0799,0.138915 -0.36002,-0.285334 -0.36002,-0.545298 0,-0.462655 0.41126,-0.874692 0.94442,-0.9462 1.12403,-0.150763 1.79161,0.924539 1.369,2.205086 -0.35567,1.077684 -1.73084,1.491126 -2.94584,0.885666 z"
         style="fill:#0f3051;fill-opacity:0.27058824;stroke-width:0.10995889"
         inkscape:connector-curvature="0" />
      <path
         id="path1278"
         d="m 176.84422,28.546419 c -0.31913,-0.285155 -0.37206,-0.403315 -0.37206,-0.830774 0,-0.664812 0.13365,-0.783306 0.61198,-0.542589 0.53367,0.268557 1.72275,0.237494 2.63181,-0.06876 1.0133,-0.341375 2.37537,-1.031314 3.05359,-1.546769 0.31873,-0.242238 0.60325,-0.440429 0.63226,-0.440429 0.029,0 0.0528,0.09548 0.0528,0.212176 0,0.358473 -2.63386,2.363814 -4.06916,3.09812 -0.54005,0.276298 -0.89134,0.375814 -1.44158,0.408391 -0.68279,0.04043 -0.75041,0.02266 -1.09959,-0.289364 z"
         style="fill:#0f3051;fill-opacity:0.27058824;stroke-width:0.10995889"
         inkscape:connector-curvature="0" />
      <path
         id="path1280"
         d="m 171.62797,26.946631 c -0.0359,-0.142824 -0.0492,-0.427343 -0.0296,-0.63226 0.0303,-0.317103 0.10927,-0.40997 0.5304,-0.623636 0.61079,-0.309889 1.14015,-0.289852 1.18792,0.04499 0.0245,0.171506 -0.10781,0.337358 -0.49679,0.622897 -0.29157,0.214031 -0.6235,0.492331 -0.73763,0.618437 -0.26825,0.296411 -0.37407,0.289332 -0.45432,-0.03036 z"
         style="fill:#0f3051;fill-opacity:0.27058824;stroke-width:0.10995889"
         inkscape:connector-curvature="0" />
      <path
         sodipodi:nodetypes="ccccsccccccccccc"
         inkscape:connector-curvature="0"
         id="path1282"
         d="m 187.19316,27.017931 c -0.0907,-0.03357 -0.23116,-0.113584 -0.31211,-0.177783 -0.0809,-0.0642 -0.36658,-0.103225 -0.63475,-0.08674 -0.42549,0.02619 -0.52543,-0.01316 -0.78449,-0.308348 -0.17155,-0.19549 -0.40472,-0.338334 -0.5523,-0.338334 -0.30225,0 -0.79491,-0.456339 -0.79589,-0.737226 -3.4e-4,-0.108584 -0.14929,-0.281971 -0.33088,-0.385312 -0.34093,-0.194007 -0.59945,-0.674279 -0.50101,-0.93079 0.0308,-0.08036 -0.0688,-0.330048 -0.22133,-0.554861 -0.20472,-0.301681 -0.25691,-0.481665 -0.19925,-0.687115 0.0188,-0.06686 0.0378,-0.152016 0.0542,-0.239321 l 1.7937,-0.0046 c 0.0879,0.747713 0.32593,1.263656 0.8033,1.74102 0.55207,0.552069 1.13622,0.808568 1.84146,0.808568 l 0.002,1.902919 z"
         style="fill:#0f3051;fill-opacity:0.27058824;stroke-width:0.10995889" />
      <path
         id="path1284"
         d="m 173.61323,25.556931 c -0.0975,-0.307283 0.18948,-1.209546 0.38474,-1.209546 0.04,0 0.31772,0.242463 0.61719,0.53881 l 0.54449,0.538809 -0.52128,0.06915 c -0.28671,0.03799 -0.55098,0.117197 -0.58728,0.175921 -0.11278,0.182493 -0.36468,0.117397 -0.43786,-0.113148 z"
         style="fill:#0f3051;fill-opacity:0.27058824;stroke-width:0.10995889"
         inkscape:connector-curvature="0" />
      <path
         id="path1286"
         d="m 171.96385,25.065505 c -0.0605,-0.0215 -0.23546,-0.06649 -0.38886,-0.09993 -0.15339,-0.03344 -0.39565,-0.21871 -0.53834,-0.411716 -0.24908,-0.336895 -0.25138,-0.356817 -0.0574,-0.498614 0.35428,-0.259046 1.05463,-0.180613 1.6267,0.182179 0.28609,0.181428 0.57136,0.329874 0.63395,0.329874 0.0626,0 0.098,0.111332 0.0787,0.247405 -0.0311,0.219197 -0.10411,0.249836 -0.63991,0.268673 -0.33263,0.01168 -0.65426,0.0039 -0.71474,-0.01791 z"
         style="fill:#0f3051;fill-opacity:0.27058824;stroke-width:0.10995889"
         inkscape:connector-curvature="0" />
      <path
         id="path1288"
         d="m 173.13159,24.176656 c -0.39046,-0.328546 -0.67293,-0.804929 -0.67293,-1.13488 0,-0.255754 0.50711,-0.893567 0.71046,-0.893567 0.0791,0 0.17134,0.189111 0.20989,0.430129 0.0378,0.236571 0.16992,0.66609 0.29354,0.954485 0.22025,0.513806 0.2206,0.528535 0.0174,0.731752 -0.20322,0.203217 -0.21446,0.201445 -0.55834,-0.08792 z"
         style="fill:#0f3051;fill-opacity:0.27058824;stroke-width:0.10995889"
         inkscape:connector-curvature="0" />
      <path
         id="path1290"
         d="m 173.56924,20.883681 c -0.0172,-1.795084 -0.16043,-2.368159 -0.68331,-2.734404 -0.29154,-0.204205 -0.78056,-0.233561 -1.09425,-0.06568 -0.26896,0.143941 -0.28842,-0.08825 -0.0466,-0.555862 0.21358,-0.413012 0.4754,-0.547699 1.06373,-0.547185 1.3756,0.0013 1.84648,1.25132 1.24343,3.301119 -0.15169,0.515583 -0.31885,1.233067 -0.37148,1.594403 -0.0815,0.559937 -0.098,0.413326 -0.11151,-0.99239 z"
         style="fill:#0f3051;fill-opacity:0.27058824;stroke-width:0.10995889"
         inkscape:connector-curvature="0" />
      <path
         id="path1292"
         d="m 174.44618,19.824988 c 0.004,-0.08297 0.0664,-0.542833 0.13745,-1.021912 l 0.12919,-0.871065 0.75894,-0.310999 c 0.41741,-0.171044 0.77615,-0.310999 0.7972,-0.310999 0.0842,0 0.03,0.959882 -0.0757,1.340477 -0.0941,0.338924 -0.20733,0.45161 -0.68663,0.683521 -0.31566,0.152734 -0.68526,0.359628 -0.82133,0.459767 -0.19298,0.142028 -0.24559,0.148889 -0.23915,0.03119 z"
         style="fill:#0f3051;fill-opacity:0.27058824;stroke-width:0.10995889"
         inkscape:connector-curvature="0" />
      <path
         sodipodi:nodetypes="cccc"
         inkscape:connector-curvature="0"
         id="path1294"
         d="m 187.34538,22.686809 h -1.6409 c 0.0326,0.94542 0.59768,1.640902 1.66263,1.662636 z"
         style="opacity:1;fill:#0f3051;fill-opacity:0.27058824;stroke:none;stroke-width:0.40000001;stroke-miterlimit:4;stroke-dasharray:none;stroke-opacity:1" />
    </g>
    <rect
       style="opacity:1;fill:#0f3051;fill-opacity:0.27058824;stroke:none;stroke-width:1.2134608;stroke-miterlimit:4;stroke-dasharray:none;stroke-opacity:1"
       id="rect1300"
       width="1.4466501"
       height="215.74481"
       x="15"
       y="40.755314" />
    <rect
       y="40.755314"
       x="193.55334"
       height="215.74481"
       width="1.4466501"
       id="rect1302"
       style="opacity:1;fill:#0f3051;fill-opacity:0.27058824;stroke:none;stroke-width:1.2134608;stroke-miterlimit:4;stroke-dasharray:none;stroke-opacity:1" />
    <rect
       style="opacity:1;fill:#0f3051;fill-opacity:0.27058824;stroke:none;stroke-width:0.41803914;stroke-miterlimit:4;stroke-dasharray:none;stroke-opacity:1"
       id="rect1304"
       width="129.31392"
       height="1.3734069"
       x="40.371582"
       y="280.54636" />
    <rect
       y="14.904501"
       x="40.371582"
       height="1.3734069"
       width="129.31392"
       id="rect1306"
       style="opacity:1;fill:#0f3051;fill-opacity:0.27058824;stroke:none;stroke-width:0.41803914;stroke-miterlimit:4;stroke-dasharray:none;stroke-opacity:1" />
    <text
       xml:space="preserve"
       style="font-style:normal;font-variant:normal;font-weight:normal;font-stretch:normal;font-size:11.28888893px;line-height:1.25;font-family:Desdemona;-inkscape-font-specification:Desdemona;text-align:start;text-anchor:start;opacity:1;fill:#0f3051;fill-opacity:0.27058824;stroke:none;stroke-width:0.40000001;stroke-miterlimit:4;stroke-dasharray:none;stroke-opacity:1"
       x="57.713623"
       y="133.80138"
       id="text1390"><tspan
         sodipodi:role="line"
         id="tspan1388"
         x="57.713623"
         y="144.57823"
         style="font-style:normal;font-variant:normal;font-weight:normal;font-stretch:normal;font-size:11.28888893px;font-family:Desdemona;-inkscape-font-specification:Desdemona;stroke-width:0.40000001" /></text>
    <text
       xml:space="preserve"
       style="font-style:normal;font-variant:normal;font-weight:normal;font-stretch:normal;font-size:11.28888893px;line-height:1.25;font-family:Desdemona;-inkscape-font-specification:Desdemona;text-align:start;text-anchor:start;opacity:1;fill:#153050;fill-opacity:0.5254902;stroke:none;stroke-width:0.40000001;stroke-miterlimit:4;stroke-dasharray:none;stroke-opacity:1"
       x="36.938343"
       y="138.64601"
       id="text1473"><tspan
         sodipodi:role="line"
         id="tspan1471"
         x="36.938343"
         y="138.64601"
         style="font-style:normal;font-variant:normal;font-weight:normal;font-stretch:normal;font-size:9.87777805px;font-family:'DejaVu Sans';-inkscape-font-specification:'DejaVu Sans';fill:#153050;fill-opacity:0.5254902;stroke-width:0.40000001">Asociacin Python Canarias</tspan></text>
    <text
       id="text968"
       y="150.19304"
       x="47.659817"
       style="font-style:normal;font-variant:normal;font-weight:normal;font-stretch:normal;font-size:11.28888893px;line-height:1.25;font-family:Desdemona;-inkscape-font-specification:Desdemona;text-align:start;text-anchor:start;opacity:1;fill:#333333;fill-opacity:0.93984961;stroke:none;stroke-width:0.40000001;stroke-miterlimit:4;stroke-dasharray:none;stroke-opacity:1"
       xml:space="preserve"><tspan
         style="font-style:normal;font-variant:normal;font-weight:normal;font-stretch:normal;font-size:6.35000181px;font-family:'DejaVu Sans';-inkscape-font-specification:'DejaVu Sans';fill:#333333;fill-opacity:0.93984961;stroke-width:0.40000001"
         y="150.19304"
         x="47.659817"
         sodipodi:role="line"
         id="tspan970">Por el que se reconoce a:</tspan></text>
    <flowRoot
       xml:space="preserve"
       id="flowRoot978"
       style="font-style:normal;font-variant:normal;font-weight:bold;font-stretch:normal;font-size:26.6673069px;line-height:1.25;font-family:'DejaVu Sans';-inkscape-font-specification:'DejaVu Sans Bold';text-align:center;text-anchor:middle;opacity:1;fill:#333333;fill-opacity:0.93984961;stroke:none;stroke-width:1.51181102;stroke-miterlimit:4;stroke-dasharray:none;stroke-opacity:1"
       transform="matrix(0.26458333,0,0,0.26458333,0,-33.33751)"><flowRegion
         id="flowRegion980"><rect
           id="rect982"
           width="642.87292"
           height="45.048027"
           x="74.141548"
           y="712.3949" /></flowRegion><flowPara
         id="name">{{ Menganita de tal }}</flowPara></flowRoot>    <flowRoot
       xml:space="preserve"
       id="flowRoot986"
       style="font-style:normal;font-variant:normal;font-weight:bold;font-stretch:normal;font-size:26.6673069px;line-height:1.25;font-family:'DejaVu Sans';-inkscape-font-specification:'DejaVu Sans Bold';text-align:start;text-anchor:start;opacity:1;fill:#333333;fill-opacity:0.93984961;stroke:none;stroke-width:1.51181102;stroke-miterlimit:4;stroke-dasharray:none;stroke-opacity:1"
       transform="matrix(0.26458333,0,0,0.26458333,0,-31.220843)"><flowRegion
         id="flowRegion988"
         style="text-align:start;text-anchor:start"><rect
           id="rect990"
           width="534.03094"
           height="203.3159"
           x="130.45158"
           y="748.99646"
           style="text-align:start;text-anchor:start" /></flowRegion><flowPara
         id="flowPara992"
         style="font-style:normal;font-variant:normal;font-weight:normal;font-stretch:normal;font-family:'DejaVu Sans';-inkscape-font-specification:'DejaVu Sans';text-align:justify;text-anchor:start"><flowSpan
           style="font-size:24.00064087px;text-align:justify;text-anchor:start"
           id="flowSpan1002">Su asistencia a la 2 edicin del evento <flowSpan
   style="font-style:normal;font-variant:normal;font-weight:bold;font-stretch:normal;font-family:'DejaVu Sans';-inkscape-font-specification:'DejaVu Sans Bold';text-align:justify;text-anchor:start"
   id="flowSpan1004">PyDay Tenerife</flowSpan>, celebrado el 17 de noviembre de 2018 en el Edificio de Fsica y Matemticas (Universidad de La Laguna), San Cristobal de La Laguna, Tenerife, Islas Canarias.</flowSpan></flowPara></flowRoot>    <flowRoot
       xml:space="preserve"
       id="flowRoot994"
       style="font-style:normal;font-variant:normal;font-weight:normal;font-stretch:normal;font-size:26.6673069px;line-height:1.25;font-family:'DejaVu Sans';-inkscape-font-specification:'DejaVu Sans';text-align:start;text-anchor:start;opacity:1;fill:#333333;fill-opacity:0.93984961;stroke:none;stroke-width:1.51181102;stroke-miterlimit:4;stroke-dasharray:none;stroke-opacity:1"><flowRegion
         id="flowRegion996"><rect
           id="rect998"
           width="3.6576073"
           height="41.148083"
           x="673.91412"
           y="906.72083" /></flowRegion><flowPara
         id="flowPara1000" /></flowRoot>    <text
       xml:space="preserve"
       style="font-style:normal;font-variant:normal;font-weight:bold;font-stretch:normal;font-size:6.35000181px;line-height:1.25;font-family:'DejaVu Sans';-inkscape-font-specification:'DejaVu Sans Bold';text-align:start;text-anchor:start;opacity:1;fill:#333333;fill-opacity:0.93984961;stroke:none;stroke-width:0.40000001;stroke-miterlimit:4;stroke-dasharray:none;stroke-opacity:1"
       x="44.545975"
       y="246.61778"
       id="text1008"><tspan
         sodipodi:role="line"
         id="tspan1006"
         x="44.545975"
         y="246.61778"
         style="font-size:5.64444637px;stroke-width:0.40000001">El presidente</tspan></text>
    <text
       id="text1012"
       y="246.61778"
       x="123.39185"
       style="font-style:normal;font-variant:normal;font-weight:bold;font-stretch:normal;font-size:6.35000181px;line-height:1.25;font-family:'DejaVu Sans';-inkscape-font-specification:'DejaVu Sans Bold';text-align:start;text-anchor:start;opacity:1;fill:#333333;fill-opacity:0.93984961;stroke:none;stroke-width:0.40000001;stroke-miterlimit:4;stroke-dasharray:none;stroke-opacity:1"
       xml:space="preserve"><tspan
         style="font-size:5.64444637px;stroke-width:0.40000001"
         y="246.61778"
         x="123.39185"
         id="tspan1010"
         sodipodi:role="line">El secretario</tspan></text>
    <text
       id="text1016"
       y="252.43858"
       x="35.020966"
       style="font-style:normal;font-variant:normal;font-weight:bold;font-stretch:normal;font-size:6.35000181px;line-height:1.25;font-family:'DejaVu Sans';-inkscape-font-specification:'DejaVu Sans Bold';text-align:start;text-anchor:start;opacity:1;fill:#333333;fill-opacity:0.93984961;stroke:none;stroke-width:0.40000001;stroke-miterlimit:4;stroke-dasharray:none;stroke-opacity:1"
       xml:space="preserve"><tspan
         style="font-style:normal;font-variant:normal;font-weight:normal;font-stretch:normal;font-size:4.93888903px;font-family:'DejaVu Sans';-inkscape-font-specification:'DejaVu Sans';stroke-width:0.40000001"
         y="252.43858"
         x="35.020966"
         id="tspan1014"
         sodipodi:role="line">Juan I. Rodrguez de Len</tspan></text>
    <text
       xml:space="preserve"
       style="font-style:normal;font-variant:normal;font-weight:bold;font-stretch:normal;font-size:6.35000181px;line-height:1.25;font-family:'DejaVu Sans';-inkscape-font-specification:'DejaVu Sans Bold';text-align:start;text-anchor:start;opacity:1;fill:#333333;fill-opacity:0.93984961;stroke:none;stroke-width:0.40000001;stroke-miterlimit:4;stroke-dasharray:none;stroke-opacity:1"
       x="115.40791"
       y="252.57445"
       id="text1020"><tspan
         sodipodi:role="line"
         id="tspan1018"
         x="115.40791"
         y="252.57445"
         style="font-style:normal;font-variant:normal;font-weight:normal;font-stretch:normal;font-size:4.93888903px;font-family:'DejaVu Sans';-inkscape-font-specification:'DejaVu Sans';stroke-width:0.40000001">Sergio Delgado Quintero</tspan></text>
    <text
       xml:space="preserve"
       style="font-style:normal;font-variant:normal;font-weight:normal;font-stretch:normal;font-size:4.93888855px;line-height:1.25;font-family:'DejaVu Sans';-inkscape-font-specification:'DejaVu Sans';text-align:justify;text-anchor:start;opacity:1;fill:#333333;fill-opacity:0.93984961;stroke:none;stroke-width:0.40000001;stroke-miterlimit:4;stroke-dasharray:none;stroke-opacity:1"
       x="46.935482"
       y="245.9516"
       id="text1024"><tspan
         sodipodi:role="line"
         id="tspan1022"
         x="46.935482"
         y="250.32137"
         style="stroke-width:0.40000001" /></text>
    <g
       transform="translate(-5.0511652e-5,-1.5926007e-4)"
       id="g1066">
      <path
         id="path1026"
         d="m 185.01827,38.649381 c -0.27979,-0.279802 -0.33252,-0.43303 -0.39814,-1.157259 -0.0813,-0.897443 -0.046,-1.050023 0.24289,-1.047995 0.26571,0.0019 0.90067,1.202114 0.90067,1.702506 0,0.41988 -0.15978,0.825248 -0.32529,0.825248 -0.0537,0 -0.24276,-0.145128 -0.42013,-0.3225 z"
         style="fill:#0f3051;fill-opacity:0.27058824;stroke-width:0.10995889"
         inkscape:connector-curvature="0" />
      <path
         id="path1028"
         d="m 170.80921,15.000118 v 0.714685 0.714685 h 7.58713 7.58714 v 0.713135 0.713651 l -4.07676,0.02894 -4.07727,0.02894 1.85054,1.867586 1.85001,1.867586 2.91404,0.0021 2.91403,0.0021 0.031,-1.170471 0.031,-1.170471 0.40876,-0.05116 c 0.22481,-0.02814 0.44605,-0.03058 0.49145,-0.0052 0.0454,0.02538 0.0822,0.587339 0.0822,1.24902 v 1.203027 h 1.20975 1.20974 v 0.49506 0.494544 h -1.20974 -1.20975 v 2.944523 2.944522 l 1.86087,1.783871 c 1.02334,0.981062 1.88943,1.783872 1.92443,1.783872 0.0351,0 0.0636,-1.806295 0.0636,-4.013708 v -4.013704 h 0.65991 0.65939 v 7.422287 7.421768 h 0.71469 0.71468 v -8.136971 -8.136971 h -1.37459 -1.37459 v -0.49506 -0.494543 h 1.37459 1.37459 v -3.353801 -3.3538 h -3.29541 -3.2954 l -0.031,1.401982 -0.0305,1.401981 -0.46715,0.03359 -0.46767,0.03411 v -1.436088 -1.435571 h -8.30182 z m 19.02313,1.425236 1.89652,0.02997 1.89704,0.02997 v 1.869136 1.869653 l -0.60926,0.03204 c -0.33503,0.01778 -0.6444,-0.0031 -0.6873,-0.04599 -0.0429,-0.04295 -0.078,-0.588949 -0.078,-1.21388 v -1.136364 h -1.20974 -1.20923 V 17.14262 Z m 0.7276,2.813265 c 0.0897,-0.001 0.15662,0.0049 0.17932,0.01757 0.0454,0.02538 0.0827,0.265751 0.0827,0.534334 v 0.488859 h -0.42168 c -0.52162,0 -0.56792,-0.04596 -0.56792,-0.556555 0,-0.39069 0.019,-0.411664 0.41238,-0.460954 0.11339,-0.01435 0.22554,-0.02222 0.31522,-0.02325 z m -8.32094,0.0078 c 0.38392,-6.08e-4 0.91558,0.0093 1.63401,0.02015 l 2.12287,0.03204 -0.0336,0.462504 -0.0336,0.463021 -1.87172,0.02997 -1.8712,0.02997 -0.47905,-0.487825 c -0.44287,-0.45127 -0.61946,-0.547988 0.53227,-0.549837 z m 7.59334,4.880839 h 0.49454 0.49506 v 2.364196 h -5.3e-4 c 0,1.300263 -0.0225,2.364197 -0.0501,2.364197 -0.15163,0 -0.92785,-0.858128 -0.94465,-1.044381 -0.011,-0.120952 -0.0142,-0.999297 -0.007,-1.951819 z"
         style="fill:#0f3051;fill-opacity:0.27058824;stroke-width:0.10995889"
         inkscape:connector-curvature="0" />
      <path
         id="path1030"
         d="m 191.58764,38.099457 c 0.16788,-0.313682 0.13853,-0.802708 -0.0657,-1.094248 -0.35361,-0.504852 -0.95366,-0.666565 -2.51448,-0.677635 -0.78621,-0.0058 -1.52843,-0.05269 -1.64938,-0.104651 -0.16299,-0.07003 -0.0761,-0.0965 0.33568,-0.102225 0.30558,-0.0045 1.02306,-0.130501 1.5944,-0.280565 2.02884,-0.53286 3.08814,-0.274969 3.40472,0.828899 0.21524,0.750498 -0.30364,1.643115 -0.95515,1.643115 -0.22687,0 -0.24795,-0.02991 -0.15011,-0.21269 z"
         style="fill:#0f3051;fill-opacity:0.27058824;stroke-width:0.10995889"
         inkscape:connector-curvature="0" />
      <path
         id="path1032"
         d="m 182.65083,38.079757 c -0.18098,-0.105273 -0.15502,-0.162687 0.28745,-0.635733 0.26752,-0.285995 0.54435,-0.628262 0.61517,-0.760593 0.14207,-0.265471 0.64182,-0.334143 0.73147,-0.100518 0.0778,0.202601 -0.23248,1.163947 -0.45492,1.409747 -0.21024,0.232309 -0.84849,0.279455 -1.17917,0.0871 z"
         style="fill:#0f3051;fill-opacity:0.27058824;stroke-width:0.10995889"
         inkscape:connector-curvature="0" />
      <path
         id="path1034"
         d="m 179.99085,37.609626 c -0.93403,-0.408032 -1.51032,-1.274348 -1.51032,-2.270415 0,-1.213281 0.73301,-1.975222 1.90024,-1.975222 0.68171,0 1.13788,0.242321 1.36764,0.726514 0.2229,0.469721 0.20949,0.796406 -0.0502,1.222305 -0.22177,0.363716 -0.55976,0.516411 -1.00033,0.451898 -0.3283,-0.04807 -0.408,-0.309645 -0.11749,-0.38562 0.5323,-0.139199 0.35545,-0.91551 -0.20855,-0.91551 -0.79307,0 -1.04381,0.995271 -0.42757,1.697128 0.43577,0.496311 0.94029,0.60349 1.5489,0.329053 1.06445,-0.480002 1.53554,-1.761012 1.89819,-5.16166 0.0904,-0.847594 0.271,-1.886706 0.40137,-2.30914 0.25548,-0.827892 0.90117,-2.189985 1.0949,-2.309711 0.0655,-0.0405 0.30599,0.05012 0.53446,0.201342 l 0.41543,0.274912 -0.46098,0.941547 c -0.57028,1.164787 -0.77244,2.045261 -0.75034,3.268073 0.0128,0.705483 0.0793,1.089563 0.26234,1.515167 0.49337,1.146875 1.90418,2.007306 2.99039,1.823792 0.64295,-0.108624 1.29348,-0.75123 1.29348,-1.277711 0,-0.717446 -0.46209,-1.059546 -1.08016,-0.799659 -0.46908,0.197229 -0.58823,0.664023 -0.23711,0.928877 l 0.25359,0.191286 -0.24202,0.12952 c -0.29596,0.158394 -0.56746,0.08216 -0.86165,-0.24191 -0.35507,-0.39114 -0.38638,-0.754991 -0.11181,-1.299365 0.32574,-0.64579 1.01856,-1.022303 1.71615,-0.932632 1.05206,0.135232 1.6626,0.875744 1.6626,2.016515 0,0.562043 -0.053,0.73867 -0.35736,1.191653 -0.62235,0.926112 -1.4827,1.323907 -2.63885,1.220078 -0.83143,-0.07467 -1.89434,-0.580558 -2.56014,-1.218499 -0.29115,-0.278968 -0.53855,-0.495142 -0.54979,-0.480387 -0.0112,0.01476 -0.12434,0.373201 -0.25134,0.796546 -0.24034,0.801136 -0.68894,1.604325 -1.13465,2.031521 -0.69493,0.666051 -2.0127,0.958856 -2.78902,0.619714 z"
         style="fill:#0f3051;fill-opacity:0.27058824;stroke-width:0.10995889"
         inkscape:connector-curvature="0" />
      <path
         id="path1036"
         d="m 186.07415,37.126954 c -0.16188,-0.106762 -0.40241,-0.331511 -0.53451,-0.499449 -0.22864,-0.29068 -0.23103,-0.315447 -0.0497,-0.515808 0.17861,-0.197357 0.21532,-0.199815 0.58947,-0.03947 0.21946,0.09403 0.63406,0.242559 0.92132,0.330035 0.60331,0.183732 0.65761,0.369101 0.20294,0.692846 -0.39046,0.278043 -0.74123,0.287933 -1.12952,0.03183 z"
         style="fill:#0f3051;fill-opacity:0.27058824;stroke-width:0.10995889"
         inkscape:connector-curvature="0" />
      <path
         inkscape:connector-curvature="0"
         id="path1038"
         d="m 175.63824,34.289492 c 0,-0.03044 0.0907,-0.214005 0.20162,-0.407969 0.11088,-0.193963 0.31788,-0.66041 0.45997,-1.036552 0.4521,-1.196672 0.75039,-1.545285 2.46807,-2.884467 0.90964,-0.709193 2.54525,-2.04738 4.01568,-3.285454 0.89959,-0.757434 1.11081,-0.889234 1.11081,-0.693123 0,0.08005 -1.22179,1.644777 -1.96661,2.518611 -0.26934,0.315999 -1.6464,2.102729 -2.50928,3.255771 -0.83856,1.120566 -1.44584,1.617548 -2.32084,1.899342 -0.18347,0.05909 -0.55875,0.22538 -0.83396,0.369546 -0.64143,0.336011 -0.62546,0.329267 -0.62546,0.264295 z"
         style="fill:#0f3051;fill-opacity:0.27058824;stroke-width:0.08389987" />
      <path
         id="path1040"
         d="m 184.12693,36.123082 c -0.12227,-0.07743 -0.12769,-0.167141 -0.0275,-0.454561 0.0686,-0.196953 0.12483,-0.523895 0.12483,-0.72654 0,-0.202646 0.0495,-0.368446 0.10995,-0.368446 0.0605,0 0.10996,0.04569 0.10996,0.101492 0,0.05584 0.19792,0.295513 0.43984,0.532643 0.24191,0.237135 0.43983,0.490874 0.43983,0.563871 0,0.133628 -0.6414,0.452823 -0.90363,0.449691 -0.0775,-6.42e-4 -0.20952,-0.04512 -0.2933,-0.09815 z"
         style="fill:#0f3051;fill-opacity:0.27058824;stroke-width:0.10995889"
         inkscape:connector-curvature="0" />
      <path
         id="path1042"
         d="m 189.97029,35.135141 c 0.16267,-0.193314 0.39045,-0.565553 0.50619,-0.827212 0.11575,-0.261645 0.26351,-0.508523 0.32838,-0.548616 0.0649,-0.04011 0.44158,-0.10311 0.83715,-0.140045 0.85086,-0.07946 0.86343,-0.0525 0.43568,0.933793 l -0.28353,0.653774 -0.67861,0.07263 c -0.37324,0.03992 -0.85014,0.102892 -1.0598,0.139892 l -0.38121,0.06727 z"
         style="fill:#0f3051;fill-opacity:0.27058824;stroke-width:0.10995889"
         inkscape:connector-curvature="0" />
      <path
         id="path1044"
         d="m 181.50215,33.089969 c -0.67656,-0.488647 -0.73729,-1.505899 -0.1583,-2.651517 0.65644,-1.298844 2.85941,-4.11181 3.22016,-4.11181 0.27965,0 0.27193,0.02696 -0.17523,0.612795 -1.51392,1.983354 -2.2434,4.305966 -1.7747,5.65057 0.094,0.269784 0.15087,0.510622 0.1263,0.535197 -0.0246,0.02458 -0.25742,0.067 -0.51743,0.09429 -0.32653,0.03427 -0.54948,-0.0058 -0.7208,-0.129527 z"
         style="fill:#0f3051;fill-opacity:0.27058824;stroke-width:0.10995889"
         inkscape:connector-curvature="0" />
      <path
         id="path1046"
         d="m 173.25571,30.992922 c -1.55197,-0.773378 -1.77205,-2.789252 -0.4485,-4.108172 0.44663,-0.44507 1.46788,-0.948549 2.25583,-1.112129 0.32144,-0.06673 0.58443,-0.141258 0.58443,-0.165614 0,-0.02432 -0.21429,-0.258584 -0.47621,-0.520499 -1.2244,-1.22441 -1.56323,-3.110372 -0.79448,-4.422156 0.51548,-0.879588 1.67368,-1.407506 2.55771,-1.165814 0.90115,0.246371 1.46195,0.946424 1.46195,1.824973 0,0.601397 -0.19835,1.02435 -0.66423,1.416369 -0.71184,0.598965 -1.86482,0.240242 -1.86482,-0.580186 0,-0.422452 0.19241,-0.539534 0.39988,-0.243328 0.21981,0.313829 0.52673,0.291668 0.80169,-0.05789 0.295,-0.375037 0.28771,-0.618097 -0.0296,-0.986992 -0.30401,-0.353447 -0.78597,-0.39682 -1.22353,-0.110119 -1.0899,0.714135 -0.92087,2.575061 0.33425,3.679853 1.18804,1.045755 3.54765,1.047225 5.62525,0.0032 l 0.80969,-0.406767 0.27379,0.43371 c 0.15059,0.238535 0.24392,0.482056 0.20739,0.541146 -0.23879,0.386358 -2.46416,1.172643 -3.7351,1.319703 -3.09797,0.35846 -3.71304,0.450217 -4.36227,0.650744 -0.98081,0.302939 -1.55902,0.743304 -1.79816,1.369462 -0.17121,0.448317 -0.1751,0.547538 -0.0358,0.913564 0.29901,0.785624 1.31588,1.165667 1.83211,0.684727 0.42591,-0.3968 0.23469,-1.175094 -0.26459,-1.076894 -0.10226,0.02015 -0.24071,0.135534 -0.30767,0.256492 -0.067,0.120952 -0.13292,0.239337 -0.14658,0.263071 -0.0799,0.138915 -0.36002,-0.285334 -0.36002,-0.545298 0,-0.462655 0.41126,-0.874692 0.94442,-0.9462 1.12403,-0.150763 1.79161,0.924539 1.369,2.205086 -0.35567,1.077684 -1.73084,1.491126 -2.94584,0.885666 z"
         style="fill:#0f3051;fill-opacity:0.27058824;stroke-width:0.10995889"
         inkscape:connector-curvature="0" />
      <path
         id="path1048"
         d="m 176.84422,28.546419 c -0.31913,-0.285155 -0.37206,-0.403315 -0.37206,-0.830774 0,-0.664812 0.13365,-0.783306 0.61198,-0.542589 0.53367,0.268557 1.72275,0.237494 2.63181,-0.06876 1.0133,-0.341375 2.37537,-1.031314 3.05359,-1.546769 0.31873,-0.242238 0.60325,-0.440429 0.63226,-0.440429 0.029,0 0.0528,0.09548 0.0528,0.212176 0,0.358473 -2.63386,2.363814 -4.06916,3.09812 -0.54005,0.276298 -0.89134,0.375814 -1.44158,0.408391 -0.68279,0.04043 -0.75041,0.02266 -1.09959,-0.289364 z"
         style="fill:#0f3051;fill-opacity:0.27058824;stroke-width:0.10995889"
         inkscape:connector-curvature="0" />
      <path
         id="path1050"
         d="m 171.62797,26.946631 c -0.0359,-0.142824 -0.0492,-0.427343 -0.0296,-0.63226 0.0303,-0.317103 0.10927,-0.40997 0.5304,-0.623636 0.61079,-0.309889 1.14015,-0.289852 1.18792,0.04499 0.0245,0.171506 -0.10781,0.337358 -0.49679,0.622897 -0.29157,0.214031 -0.6235,0.492331 -0.73763,0.618437 -0.26825,0.296411 -0.37407,0.289332 -0.45432,-0.03036 z"
         style="fill:#0f3051;fill-opacity:0.27058824;stroke-width:0.10995889"
         inkscape:connector-curvature="0" />
      <path
         sodipodi:nodetypes="ccccsccccccccccc"
         inkscape:connector-curvature="0"
         id="path1052"
         d="m 187.19316,27.017931 c -0.0907,-0.03357 -0.23116,-0.113584 -0.31211,-0.177783 -0.0809,-0.0642 -0.36658,-0.103225 -0.63475,-0.08674 -0.42549,0.02619 -0.52543,-0.01316 -0.78449,-0.308348 -0.17155,-0.19549 -0.40472,-0.338334 -0.5523,-0.338334 -0.30225,0 -0.79491,-0.456339 -0.79589,-0.737226 -3.4e-4,-0.108584 -0.14929,-0.281971 -0.33088,-0.385312 -0.34093,-0.194007 -0.59945,-0.674279 -0.50101,-0.93079 0.0308,-0.08036 -0.0688,-0.330048 -0.22133,-0.554861 -0.20472,-0.301681 -0.25691,-0.481665 -0.19925,-0.687115 0.0188,-0.06686 0.0378,-0.152016 0.0542,-0.239321 l 1.7937,-0.0046 c 0.0879,0.747713 0.32593,1.263656 0.8033,1.74102 0.55207,0.552069 1.13622,0.808568 1.84146,0.808568 l 0.002,1.902919 z"
         style="fill:#0f3051;fill-opacity:0.27058824;stroke-width:0.10995889" />
      <path
         id="path1054"
         d="m 173.61323,25.556931 c -0.0975,-0.307283 0.18948,-1.209546 0.38474,-1.209546 0.04,0 0.31772,0.242463 0.61719,0.53881 l 0.54449,0.538809 -0.52128,0.06915 c -0.28671,0.03799 -0.55098,0.117197 -0.58728,0.175921 -0.11278,0.182493 -0.36468,0.117397 -0.43786,-0.113148 z"
         style="fill:#0f3051;fill-opacity:0.27058824;stroke-width:0.10995889"
         inkscape:connector-curvature="0" />
      <path
         id="path1056"
         d="m 171.96385,25.065505 c -0.0605,-0.0215 -0.23546,-0.06649 -0.38886,-0.09993 -0.15339,-0.03344 -0.39565,-0.21871 -0.53834,-0.411716 -0.24908,-0.336895 -0.25138,-0.356817 -0.0574,-0.498614 0.35428,-0.259046 1.05463,-0.180613 1.6267,0.182179 0.28609,0.181428 0.57136,0.329874 0.63395,0.329874 0.0626,0 0.098,0.111332 0.0787,0.247405 -0.0311,0.219197 -0.10411,0.249836 -0.63991,0.268673 -0.33263,0.01168 -0.65426,0.0039 -0.71474,-0.01791 z"
         style="fill:#0f3051;fill-opacity:0.27058824;stroke-width:0.10995889"
         inkscape:connector-curvature="0" />
      <path
         id="path1058"
         d="m 173.13159,24.176656 c -0.39046,-0.328546 -0.67293,-0.804929 -0.67293,-1.13488 0,-0.255754 0.50711,-0.893567 0.71046,-0.893567 0.0791,0 0.17134,0.189111 0.20989,0.430129 0.0378,0.236571 0.16992,0.66609 0.29354,0.954485 0.22025,0.513806 0.2206,0.528535 0.0174,0.731752 -0.20322,0.203217 -0.21446,0.201445 -0.55834,-0.08792 z"
         style="fill:#0f3051;fill-opacity:0.27058824;stroke-width:0.10995889"
         inkscape:connector-curvature="0" />
      <path
         id="path1060"
         d="m 173.56924,20.883681 c -0.0172,-1.795084 -0.16043,-2.368159 -0.68331,-2.734404 -0.29154,-0.204205 -0.78056,-0.233561 -1.09425,-0.06568 -0.26896,0.143941 -0.28842,-0.08825 -0.0466,-0.555862 0.21358,-0.413012 0.4754,-0.547699 1.06373,-0.547185 1.3756,0.0013 1.84648,1.25132 1.24343,3.301119 -0.15169,0.515583 -0.31885,1.233067 -0.37148,1.594403 -0.0815,0.559937 -0.098,0.413326 -0.11151,-0.99239 z"
         style="fill:#0f3051;fill-opacity:0.27058824;stroke-width:0.10995889"
         inkscape:connector-curvature="0" />
      <path
         id="path1062"
         d="m 174.44618,19.824988 c 0.004,-0.08297 0.0664,-0.542833 0.13745,-1.021912 l 0.12919,-0.871065 0.75894,-0.310999 c 0.41741,-0.171044 0.77615,-0.310999 0.7972,-0.310999 0.0842,0 0.03,0.959882 -0.0757,1.340477 -0.0941,0.338924 -0.20733,0.45161 -0.68663,0.683521 -0.31566,0.152734 -0.68526,0.359628 -0.82133,0.459767 -0.19298,0.142028 -0.24559,0.148889 -0.23915,0.03119 z"
         style="fill:#0f3051;fill-opacity:0.27058824;stroke-width:0.10995889"
         inkscape:connector-curvature="0" />
      <path
         sodipodi:nodetypes="cccc"
         inkscape:connector-curvature="0"
         id="path1064"
         d="m 187.34538,22.686809 h -1.6409 c 0.0326,0.94542 0.59768,1.640902 1.66263,1.662636 z"
         style="opacity:1;fill:#0f3051;fill-opacity:0.27058824;stroke:none;stroke-width:0.40000001;stroke-miterlimit:4;stroke-dasharray:none;stroke-opacity:1" />
    </g>
    <text
       xml:space="preserve"
       style="font-style:normal;font-variant:normal;font-weight:normal;font-stretch:normal;font-size:17.23732948px;line-height:1.25;font-family:'Lantinghei TC';-inkscape-font-specification:'Lantinghei TC';text-align:start;text-anchor:start;opacity:1;fill:#153050;fill-opacity:0.5254902;stroke:none;stroke-width:0.61077154;stroke-miterlimit:4;stroke-dasharray:none;stroke-opacity:1"
       x="46.904198"
       y="62.369709"
       id="text1386"><tspan
         sodipodi:role="line"
         id="tspan1384"
         x="46.904198"
         y="62.369709"
         style="font-style:normal;font-variant:normal;font-weight:normal;font-stretch:normal;font-family:Futura-Bold;-inkscape-font-specification:Futura-Bold;fill:#153050;fill-opacity:0.5254902;stroke-width:0.61077154">CERTIFICADO</tspan></text>
  </g>
</svg>
